<?xml version="1.0" encoding="UTF-8"?><svg id="Layer_1" xmlns="http://www.w3.org/2000/svg" viewBox="0 0 375 342"><defs><style>.cls-1{fill:#db8a7d;}.cls-2{fill:#b5dbfe;}.cls-3{fill:#76b9fd;}.cls-4{fill:#74ade8;}.cls-5{fill:#e9ecf2;}.cls-6{fill:#e0897b;}.cls-7{fill:#636366;}.cls-8{fill:#b3ebfb;}.cls-9{fill:#edf0f8;}.cls-10{fill:#f5e41b;}.cls-11{fill:#d2c417;}.cls-12{fill:#d7d7d7;}.cls-13{fill:#e5988b;}.cls-14{fill:#f6f6f6;}.cls-15{fill:#dfd01a;}.cls-16{fill:#ebdb19;}.cls-17{fill:#dcdfe6;}.cls-18{fill:#28292b;}.cls-19{fill:#f0f0f0;}.cls-20{fill:#dddaab;}.cls-21{fill:#cecece;}.cls-22{fill:#e4988b;}.cls-23{fill:#b4b8bd;}.cls-24{fill:#060505;}.cls-25{fill:#37362a;}.cls-26{fill:#e1e1e1;}.cls-27{fill:#060606;}.cls-28{fill:#6047ee;}.cls-29{fill:#e4978b;}.cls-30{fill:#e2e2e2;}.cls-31{fill:#07499d;}.cls-32{fill:#e9f2fc;}.cls-33{fill:#e3e7ef;}.cls-34{fill:#d5d5d5;}.cls-35{fill:#efedeb;}.cls-36{fill:#5e45ed;}.cls-37{fill:#f6f5fd;}.cls-38{fill:#b5eefb;}.cls-39{fill:#f2f2f2;}.cls-40{fill:#5f46ed;}.cls-41{fill:#dee2e9;}.cls-42{fill:#2989ed;}.cls-43{fill:#a6abb0;}.cls-44{fill:#dfaea6;}.cls-45{fill:#d8d8d8;}.cls-46{fill:#c4c4c4;}.cls-47{fill:#e1d118;}.cls-48{fill:#161515;}.cls-49{fill:#fddcd1;}.cls-50{fill:#f1f1f1;}.cls-51{fill:#212121;}.cls-52{fill:#e2effc;}.cls-53{fill:#b4a821;}.cls-54{fill:#e5d518;}.cls-55{fill:#d3d3d3;}.cls-56{fill:#543dd6;}.cls-57{fill:#cbcbcb;}.cls-58{fill:#e6998c;}.cls-59{fill:#baedfd;}.cls-60{fill:#d6c717;}.cls-61{fill:#4a35c2;}.cls-62{fill:#9c9fa5;}.cls-63{fill:#0b133e;}.cls-64{fill:#b5a913;}.cls-65{fill:#5e46ed;}.cls-66{fill:#333;}.cls-67{fill:#5e45ec;}.cls-68{fill:#b7e2fd;}.cls-69{fill:#77c2fd;}.cls-70{fill:#5a1915;}.cls-71{fill:#efefef;}.cls-72{fill:#77c3fe;}.cls-73{fill:#e2e5ec;}.cls-74{fill:#e5d519;}.cls-75{fill:#4a35c1;}.cls-76{fill:#5941e0;}.cls-77{fill:#e0d11a;}.cls-78{fill:#b4b9c0;}.cls-79{fill:#863e25;}.cls-80{fill:#eac3bf;}.cls-81{fill:#2a2a25;}.cls-82{fill:#d6d6d6;}.cls-83{fill:#d3c518;}.cls-84{fill:#672620;}.cls-85{fill:#e4988a;}.cls-86{fill:#e6998d;}.cls-87{fill:#c7c7c7;}.cls-88{fill:#eef0f4;}.cls-89{fill:#bec4cc;}.cls-90{fill:#dedede;}.cls-91{fill:#232224;}.cls-92{fill:#f4f4f4;}.cls-93{fill:#bcbbb4;}.cls-94{fill:#4029c0;}.cls-95{fill:#f5f5f5;}.cls-96{fill:#b9b9b9;}.cls-97{fill:#9aa0a9;}.cls-98{fill:#dadada;}.cls-99{fill:#e6e6e7;}.cls-100{fill:#c4cad3;}.cls-101{fill:#c5bc4f;}.cls-102{fill:#e9eaea;}.cls-103{fill:#fefefe;}.cls-104{fill:#f6f6f7;}.cls-105{fill:#d4d4d4;}.cls-106{fill:#e3e7ee;}.cls-107{fill:#072a6a;}.cls-108{fill:#0c133d;}.cls-109{fill:#d2d2d2;}.cls-110{fill:#833c25;}.cls-111{fill:#71aae6;}.cls-112{fill:#b65b4b;}.cls-113{fill:#d1d1d1;}.cls-114{fill:#efeee7;}.cls-115{fill:#e5998c;}.cls-116{fill:#d9d9d9;}.cls-117{fill:#fcfdfd;}.cls-118{fill:#f7f7f7;}.cls-119{fill:#5e1c17;}.cls-120{fill:#f3f3f3;}.cls-121{fill:#e8e8e8;}.cls-122{fill:#e6e6e6;}</style></defs><path class="cls-103" d="M.13,206.98C.13,139.57.18,72.16,0,4.75-.01.49,1.12,0,4.97,0,126.81.13,248.64.13,370.48,0c3.91,0,4.53,1.06,4.51,4.67-.16,30.79-.09,61.58-.09,92.38-2.09,1.61-3.74.25-5.33-.89-5.89-4.2-12.51-6.57-19.51-8.01-4.42-.91-8.81-1.71-12.62,1.8-.51.47-1.22.4-1.83.02-2.3-6.83-7.12-9.28-14.14-8.62-3.04.29-6.27.66-9.24-.81-3.29-14.2-17.11-25.43-33.86-28.09-10.8-1.72-21.34-.98-31.39,2.97-11.7,4.59-18.95-1.07-22.97-9.39-1.23-2.55-2.58-5.03-3.73-7.62-4.92-11.07-13.33-17.2-25.32-19.42-9.25-1.71-18.12-1.45-27.09,1.06-10.08,2.81-17.22,9.02-21.96,18.23-7.75,15.06-11.45,16.77-28.13,13.85-12.95-2.27-24.7,1.1-35.52,8.21-1.43.46-4.21-1.27-3.73,2.32-2.89,3.4-3.96,8.45-8.99,9.9-.15.19-.66-.46-.53.19.02.11.84.14,1.25.37,1.33,2.3,2.18,4.66.87,7.27-2.9,1.72-6.11.88-9.18,1.06-4.14.24-7.33,1.73-8.84,5.85-.95,2.24-.61,4.61-.61,6.92-.02,35.28,0,70.56-.03,105.84,0,2.15.25,4.34-.54,6.42-.23.6-.47,1.27-1.31,1.29-.83.02-1.08-.67-1.33-1.23-.85-1.88-.72-3.91-.79-5.9-.12-3.53-1.96-5.23-5.39-5.02-12.88.78-25.53,2.44-36.68,9.77-1.87,1.23-3.71,3.06-6.32,1.59Z"/><path class="cls-103" d="M374.9,180c0,52.64-.04,105.27.1,157.91,0,3.42-.67,4.1-4.09,4.09-122.26-.11-244.52-.11-366.78,0-3.42,0-4.25-.65-4.1-4.1.33-7.65.1-15.32.1-22.98,1.97-.76,3.65.18,5.14,1.17,11.44,7.57,24.51,9.48,37.67,10.16,15.66.82,31.31.31,46.28-5.53,4.91-1.91,9.26-4.5,12.85-8.37,2.73-2.94,5.85-5.43,9.06-7.82,9.18-6.86,18.95-10.5,30.93-10.29,36.96.64,73.95.05,110.92.33,12.19.09,23.8-2.18,35.29-5.75,2.58-.8,4.78-2.32,6.91-3.92.61-.84,1.32-1.59,2.11-2.25,4.95-1.9,7.24-6.49,10.32-10.28.81-1.26.59-2.55.1-3.83-1.95-3.69-5.4-1.9-8.26-2.26-1.04.09-2.08.04-3.12.05-2.9.08-5.8.15-8.7.06-4.04.02-8.07.23-12.1-.01-48.95.32-97.89.29-146.84.03-1.97-.18-4.06.16-5.72-1.34-.21-.71-.02-1.28.59-1.71,2.51-1.26,5.22-.81,7.85-.81,54.07-.03,108.13-.01,162.2-.03,9.53.05,19.07.01,28.6.02,2.14,0,4.29.1,6.27-.92,4.86-1.86,5.86-5.91,5.89-10.47.07-13.42.06-26.84.01-40.26-.03-9.61.21-19.22.18-28.82,0-1.81-.16-3.66.61-5.38.29-.58.76-.89,1.4-.95,1.78,1.08,1.58,2.91,1.74,4.6-.01,3.47-.33,6.95.16,10.41.33,2.29,1.68,4.1,4.04,2.75,7.11-4.06,15.53-4.74,22.54-9.01,2.4-1.47,4.67-3.14,7.11-4.55.88-.51,1.85-.75,2.75.07Z"/><path class="cls-120" d="M296.94,284.93c-5.22,6.65-13.56,6.28-20.54,8.76-5.37,1.91-11.33,2.24-17.14,2.24-39.45,0-78.9.41-118.33-.24-11.54-.19-20.58,3.84-29.28,10.23-2.39,1.76-4.83,3.6-6.79,5.8-9.69,10.82-22.6,13.82-36.19,15.16-4.6.45-9.17,1.08-13.85,1.12-19.35.17-38.09-1.9-54.7-13.08v-13.99c1.95-.49,3.2.72,4.28,1.96,7.88,9.17,18.59,12.62,29.93,14.36,14.4,2.21,28.76,1.83,43.02-1.57,9.38-2.24,16.7-7.98,24.15-13.54,6.4-4.77,12.61-9.79,20.02-13.01,5.09-2.21,10.22-3.65,15.89-3.63,33.79.12,67.59.06,101.38.06,13.94,0,27.96.93,41.51-3.52,1.58.05,4.01,2.4,4.15-1.53,3.63-2.88,8.03-4.73,11.14-8.31.75-.8,1.16-1.78,1.55-2.78.79-1.58,1.48-3.22,2.8-4.47,1.8,0,3.6.03,5.4,0,2.81-.04,3.76,1.5,3.55,4.07-.98,1.32-1.35,2.63.05,3.92-2.74,1.25-2.92,4.46-4.84,6.36-1.75,1.73-3.53,3.33-6.1,3.65-1.89-.18-2.49.35-1.07,1.97Z"/><path class="cls-71" d="M287.94,264.97c3,0,6.01,0,9.01-.01,1.21,1.54.26,2.9-.36,4.29-.86,1.34-1.62,2.76-2.79,3.89-6.71,7.15-15.66,9.61-24.72,11.74-4.87,1.14-9.88,1.09-14.87,1.08-37.76-.05-75.52.29-113.27-.2-12.26-.16-22.26,4.1-31.71,11.01-8.03,5.87-15.54,12.55-24.74,16.66-5.93,2.65-12.15,4.1-18.69,4.58-5.45.4-10.86,1.13-16.34.92-9.78-.38-19.44-1.39-28.71-4.86-8.88-3.32-15.9-8.83-20.61-17.14v-17.99c2.19-.32,2.8,1.4,3.55,2.84.78,1.47,1.36,3.04,1.96,4.59,4.38,11.49,12.77,18.61,24.53,21.42,25.17,6.01,48.58,2.88,69.07-14.23,3.06-2.56,6.13-5.15,9.46-7.34,9.19-6.06,18.95-9.89,30.33-9.8,34.95.28,69.9-.04,104.85.17,12.42.08,24.61-.57,36.25-5.33,1.68-.3,4.33,1.04,4.16-2.45.33-2.12,2.12-2.86,3.65-3.84Z"/><path class="cls-122" d="M281.88,271.97c-12.23,5.59-25.18,6.14-38.37,6.05-34.43-.23-68.86.22-103.29-.22-14.22-.18-26.04,4.87-36.22,13.87-16.94,14.99-36.45,22.03-58.89,20.14-12.26-1.03-24.37-3.21-33.53-12.86-4.48-4.73-6.65-10.64-9.11-16.43-.58-1.36-.69-2.95-2.35-3.58v-40.98c1.45-2.78,1.37-6.14,3.32-8.75,1.1-1.47,2.13-3.52,4.07-3.13,2.18.44,1.92,2.84,1.93,4.6.11,11.26.05,22.52.05,33.78,0,6.79.1,13.58-.07,20.33.27.34.57.65.93.91,1.41,1.88,2.68,3.87,4.39,5.53.28.36.54.74.79,1.12.67.73,1.43,1.35,2.13,2.05,5.86,6.05,13.45,8.5,21.38,9.95,14.11,2.57,27.81.98,40.99-4.74,7.57-3.28,13.97-8.44,20.18-13.62,15.9-13.25,33.73-18.95,54.28-15.68,1.48.24,2.99.19,4.49.19,31.31,0,62.61.04,93.92-.03,8.08-.02,15.88-1.51,23.05-5.5,3.99,0,7.99,0,11.98,0-1.01,1.35-2.01,2.7-3.02,4.05-.92,1.08-1.68,2.33-3.04,2.95Z"/><path class="cls-50" d="M9.19,285.85c-.03.16-.02.36-.11.48-.16.21-.39.37-.59.54-.12-1.41-.35-2.82-.35-4.24-.02-18.53-.02-37.07-.02-56.1-5.17,2.45-4.22,8.62-7.99,11.43v-30.98c1.57-.08,2.89-.81,4.09-1.7,9.1-6.75,19.46-9.72,30.64-10.3,3.14-.16,6.15-1.12,9.37-1.08,4.28.06,6.13,1.83,5.9,6.06-.12,2.29-.02,4.58-.02,7.86,1.41-2.61.92-4.41.92-6.11.04-36.64.02-73.28.07-109.92,0-1.92-.68-4.03.89-5.74,1.98,1.8,1.7,4.24,1.7,6.52-.06,35.05.25,70.1-.12,105.16-.03,2.58-.79,5.35,1.15,7.65,1.56,1.3,3.44,1.08,5.25,1.09,5.15.04,10.31-.11,15.46.05,4.82.16,9.53.07,13.78-2.62,1.29,1.66,1.26,3.38.25,5.15-2.28,1.87-5.03,1.41-7.64,1.4-21.72-.05-43.44.29-65.16-.19-4.07-.09-5.17,2.1-5.66,5.36-.63,2.28-.44,4.61-.45,6.93-.02,18.72.01,37.44-.03,56.16,0,2.43.53,5.02-1.32,7.14Z"/><path class="cls-120" d="M335.99,90c4.94-6.93,11.6-3.82,17.49-2.43,6.37,1.5,12.74,3.66,17.76,8.31,1.08,1,2.3,1.21,3.66,1.16v26.98c-3.43.35-3.65-3.42-6.54-5.02-.04,8.44,0,16.47-.03,24.51-.02,3.32.25,6.66-.29,9.96-.16.97-.42,2.27-1.52,2.34-1.48.09-1.55-1.41-1.87-2.49-.32-13.08-.05-26.15-.15-39.22-.02-2.15.14-4.31-.41-6.41-.1-3.94-2.06-5.48-6.04-5.37-13.77.38-27.55.13-41.33.12-2.4,0-5.06.62-6.97-1.65,1.09-2.54,3.46-2.14,5.49-2.22,4.43-.17,8.87-.16,13.29-.03,3.63.11,6.14-.72,6.02-5.03-.04-1.3.31-2.62,1.45-3.52Z"/><path class="cls-39" d="M.13,296.93c4.79,3.08,7.24,8.49,12.13,11.64,6.89,4.43,14.39,7.04,22.27,8.12,14.01,1.92,28.02,1.9,41.93-1.62,10.67-2.7,18.94-9.36,27.52-15.58,6.97-5.05,13.64-10.55,22.11-13.13,3.06-.93,6.07-1.47,9.28-1.46,40.47.05,80.94.1,121.41,0,13.79-.04,26.47-3.72,37.14-12.95,1.17-.18,2.22.02,3.03.97-3.67,3.19-7.48,6.18-12.01,8.1-.82.96-1.67,1.86-3.05,1.92-16.08,5.64-32.78,3.89-49.3,3.96-30.76.13-61.53.33-92.29-.11-11.72-.17-21.23,4.28-30.29,10.73-6.46,4.6-12.46,9.98-19.28,13.93-15.75,9.13-33.07,9.36-50.63,7.7-10.51-1-20.6-2.98-29.6-8.96-3.93-2.61-6.4-6.75-10.37-9.25v-4Z"/><path class="cls-19" d="M374.9,180c-6.64,3.63-12.66,8.45-20.26,10.22-3.87.9-7.54,2.23-11.02,4.33-3.93,2.37-6.21,1.07-6.62-3.57-.29-3.3-.07-6.65-.08-9.98,11.02-3.21,21.77-6.88,29.23-16.47,2.17-2.79,3.46-6.01,5.2-9.01.84-1.44,1.05-3.67,3.54-3.5v27.98Z"/><path class="cls-121" d="M374.9,152.02c-3.8,4.79-5.36,10.85-9.58,15.53-7.01,7.78-16.54,10.52-25.63,14.25-.7.29-1.84-.51-2.77-.8,0-1.66-.01-3.32-.02-4.98-.34-.46-.34-.92-.01-1.38,3.08-2.43,7.07-2.73,10.48-4.41,3.1-1.53,6.31-2.83,8.69-6.26-4.28-1.22-8.22-.36-12.06-.69-2.21-.19-4.74.7-6.37-1.71.06-.59.36-1.01.88-1.29,6.78-1.4,13.63-.39,20.44-.62,4.2.4,3.25-4.29,5.61-5.71.42-.27.85-.28,1.29-.04.03.16.02.36.11.48.16.21.39.36.59.54.12-1.25.34-2.49.35-3.74.03-11.72.02-23.45.02-35.57,4.77,1.21,4.45,6.67,7.99,8.4v27.98Z"/><path class="cls-14" d="M69.17,72.04c4.29-2.1,5.4-7.07,8.89-9.89.65-1.28,1.72-1.93,3.11-2.1,11.98-9.56,25.61-11.69,40.26-8.68,10.91,2.24,17.17-.13,21.4-10.14,7.59-17.94,22.21-24.34,40.05-24.93,7.63-.25,15.46,1.07,22.67,4.53,7.57,3.63,12.59,9.4,15.92,17.01,1.79,4.09,3.68,8.18,6.31,11.87,3.83,5.39,9.42,7.59,15.56,5.33,7.69-2.83,15.6-4.86,23.71-4.87,19.15,0,34.82,7.04,45.33,23.82,1.46,2.33.71,4.03-.41,5.93-4.73,2.96-9.8,1.44-14.77,1.17-1.16-.36-1.99-1.13-2.37-2.25-1.48-4.29-4.86-6.75-8.51-8.96-3.77-2.11-7.47-4.32-11.7-5.49-4.47-1.23-8.84-1.33-13.16.54-2.85,1.59-5.9,2.82-8.53,4.79-.8.6-1.7,1.31-2.65,1.08-4.89-1.19-7.98,1.96-11.34,4.51-2.89-1.19-5.75-2.26-9.01-2.12-3.44.15-5.9-1.75-7.73-4.59-3-4.65-4.82-9.81-6.47-15.01-1.89-5.94-4.88-11.26-8.82-16-2.53-3.05-5.38-6.04-10.08-4.91-4.75-1.67-9.27-4.12-14.66-3.28-4.8.75-9.27,2.12-13.14,5.12-1.35,1.03-2.42,2.48-4.22,2.84-1.51-.15-.95-1.88-1.97-2.59-4.94,3.98-8.08,9.12-10.24,15-1.66,4.51-2.46,9.32-4.84,13.59-2.6,4.66-6.17,7.43-11.76,6.2-2.63-.58-4.82,1.09-7.32.99-9.57-9.52-20.25-9.08-31.49-3.51-4.17,2.07-7.19,5.23-8.94,9.62-.66,1.66-1.17,3.52-3.09,4.33-4.75.21-9.6,1.94-14.1-1.05-1.06-2.17-.34-4.85-1.94-6.87-.25-.36-.24-.7.06-1.03Z"/><path class="cls-10" d="M71.05,79.94c4.88.04,9.75.09,14.63.13.56.27.81.71.74,1.33-.46,1.29-1.58,1.81-2.74,1.8-4.86-.03-6.11,3.26-6.66,7.12-1.1,7.81-1.33,15.73,1.23,23.2,5.65,16.46,4.47,32.64-.54,48.92-2.33,7.56-2.64,15.69-7.13,22.65-2.67,4.15-5.53,7.99-10.06,10.04-4.25,1.92-6.75,4.61-6.18,9.54.13,1.16-.38,2.28-1.23,3.17-2.3-1.13-1.15-3.23-1.15-4.82-.06-38.99-.02-77.98,0-116.97,1.81-4.35,5.19-6.04,9.75-5.95,3.11.06,6.22-.1,9.33-.16Z"/><path class="cls-16" d="M296.13,80.17c5.28-.08,10.56-.15,15.84-.23,4.26.06,8.52.14,12.78.18,7.76.07,10.16,2.17,11.25,9.88-.66,10.07-.67,9.91-10.85,10.14-5.08.11-10.27-1.16-15.24.89-.34.32-.73.52-1.18.64-5.8,2.36-6.42,2.34-10.43-2.65-1.49-1.86-3.9-2.53-5.09-4.62-.67-3.14.6-6.14.64-9.22.56-1.76.57-3.78,2.29-5.01Z"/><path class="cls-12" d="M65.4,59.94c.27-.85.75-1.55,1.66-1.5,1.37.08,1.99,1,1.84,2.3-.11.95-.86,1.33-1.77,1.16-1.05-.2-1.7-.85-1.73-1.96Z"/><path class="cls-116" d="M20.96,48.11c.09,1.18-.4,1.77-1.33,1.83-1.08.06-1.94-.53-2.12-1.58-.19-1.12.5-1.9,1.63-1.92,1.13-.02,1.66.81,1.82,1.67Z"/><path class="cls-116" d="M32.94,47.88c.1,1.23-.25,1.91-1.2,2.04-1.11.16-1.96-.45-2.22-1.44-.29-1.09.4-1.91,1.49-2.03,1.15-.13,1.63.78,1.93,1.43Z"/><path class="cls-116" d="M44.98,48.52c-.12.94-.63,1.48-1.59,1.41-1.08-.08-1.89-.68-1.92-1.78-.03-1.11.71-1.85,1.85-1.7,1.08.14,1.6.98,1.66,2.06Z"/><path class="cls-45" d="M55.08,46.41c1.05.1,1.69.74,1.85,1.82.14.94-.33,1.64-1.26,1.69-1.28.07-2.25-.54-2.23-1.94.01-.86.68-1.4,1.63-1.57Z"/><path class="cls-45" d="M68.96,48.35c-.07,1.05-.58,1.61-1.52,1.58-1.07-.04-1.92-.6-1.98-1.71-.07-1.11.66-1.85,1.79-1.77,1.11.09,1.62.92,1.72,1.89Z"/><path class="cls-45" d="M78.68,49.84c-.41-.07-1.26-.57-1.24-1.71.02-1.11.77-1.82,1.89-1.65,1.06.16,1.66,1.01,1.59,2.08-.05.9-.61,1.46-2.25,1.28Z"/><path class="cls-12" d="M92.9,47.88c.11,1.25-.29,1.92-1.23,2.05-1.1.16-1.98-.43-2.23-1.44-.27-1.09.43-1.92,1.52-2.04,1.16-.13,1.63.8,1.94,1.43Z"/><path class="cls-116" d="M9.01,60.32c-.04,1.08-.56,1.63-1.5,1.6-1.09-.02-1.89-.62-1.98-1.71-.09-1.13.65-1.85,1.77-1.77,1.11.08,1.61.93,1.71,1.88Z"/><path class="cls-116" d="M21,60.08c-.06,1.32-.57,1.87-1.51,1.85-1.08-.03-1.9-.62-1.98-1.71-.08-1.13.65-1.84,1.77-1.77,1.15.06,1.48,1.04,1.72,1.63Z"/><path class="cls-116" d="M32.97,60.18c.08.93-.28,1.6-1.23,1.74-1.11.16-1.96-.45-2.21-1.44-.28-1.09.41-1.91,1.5-2.03,1.13-.12,1.7.7,1.95,1.74Z"/><path class="cls-116" d="M43.28,58.41c1.08.29,1.69.98,1.68,2.07-.01.93-.59,1.51-1.54,1.43-1.29-.11-2.16-.82-1.9-2.2.15-.81.83-1.35,1.77-1.3Z"/><path class="cls-116" d="M56.97,60.34c-.06,1.06-.58,1.61-1.52,1.59-1.08-.03-1.9-.62-1.98-1.71-.08-1.12.65-1.85,1.78-1.77,1.1.09,1.62.92,1.72,1.89Z"/><path class="cls-105" d="M81.17,60.05c-.59,1.36-1.66,2.01-3.11,2.1-1.38-1.12-1.18-2.39.02-3.34,1.53-1.22,2.35.1,3.09,1.24Z"/><path class="cls-116" d="M20.97,72.17c.08.93-.28,1.6-1.23,1.74-1.11.16-1.95-.45-2.21-1.45-.29-1.1.41-1.91,1.49-2.03,1.14-.13,1.69.71,1.95,1.74Z"/><path class="cls-45" d="M31.3,70.39c1.08.29,1.68,1,1.66,2.08-.01.93-.59,1.52-1.54,1.44-1.3-.11-2.15-.84-1.9-2.21.15-.81.84-1.34,1.77-1.31Z"/><path class="cls-45" d="M43.15,73.9c-.9-.18-1.72-.72-1.67-1.86.05-1.11.84-1.8,1.94-1.59,1.04.2,1.63,1.07,1.54,2.14-.08.9-.69,1.4-1.81,1.31Z"/><path class="cls-45" d="M55.08,70.38c1.06.09,1.69.74,1.85,1.82.14.94-.34,1.64-1.26,1.7-1.29.09-2.24-.56-2.22-1.94,0-.86.68-1.4,1.63-1.57Z"/><path class="cls-82" d="M69.17,72.04c-.02.34-.04.69-.06,1.03-1.31,1.44-2.51,1.18-3.52-.31-.55-.82-.11-1.61.59-2.06,1.58-1,2.28.24,2.99,1.33Z"/><path class="cls-116" d="M9.04,84.4c-.19,1.06-.7,1.61-1.67,1.5-1.08-.12-1.88-.73-1.87-1.84.01-1.13.81-1.82,1.92-1.65,1.08.16,1.51,1.08,1.62,1.99Z"/><path class="cls-116" d="M19,130.18c1.39-.02,1.95.51,1.97,1.44.02,1.07-.54,1.94-1.63,2.06-1.12.13-1.86-.6-1.86-1.72,0-1.17,1-1.5,1.52-1.78Z"/><path class="cls-116" d="M8.98,131.97c-.27,1.03-.82,1.87-1.98,1.71-1.07-.15-1.79-.97-1.48-2.06.28-.98,1.13-1.6,2.25-1.42.95.15,1.29.85,1.21,1.77Z"/><path class="cls-45" d="M32.95,84.11c.08,1.04-.36,1.69-1.28,1.79-1.09.12-1.95-.49-2.16-1.52-.24-1.11.47-1.9,1.57-1.99,1.16-.09,1.66.79,1.88,1.72Z"/><path class="cls-45" d="M20.98,83.95c0,1.38-.52,1.95-1.45,1.95-1.08,0-1.9-.59-2.02-1.67-.12-1.14.62-1.83,1.73-1.82,1.18.01,1.45,1.04,1.73,1.54Z"/><path class="cls-45" d="M8.96,95.84c.09,1.37-.41,1.99-1.32,2.05-1.08.07-1.94-.52-2.12-1.58-.19-1.12.53-1.87,1.63-1.93,1.2-.07,1.5.96,1.81,1.46Z"/><path class="cls-45" d="M7.15,70.39c1.06.08,1.67.76,1.82,1.82.14.94-.33,1.64-1.25,1.7-1.3.09-2.23-.58-2.21-1.95,0-.86.68-1.4,1.64-1.57Z"/><path class="cls-12" d="M31.03,130.31c.96,0,1.6.58,1.74,1.38.2,1.09-.43,1.88-1.56,2.01-.94.11-1.6-.57-1.75-1.36-.21-1.1.47-1.8,1.57-2.03Z"/><path class="cls-12" d="M41.42,132.12c.01-.95.59-1.6,1.39-1.74,1.1-.2,1.86.45,1.99,1.58.11.95-.57,1.61-1.35,1.75-1.1.2-1.79-.49-2.02-1.59Z"/><path class="cls-12" d="M32.86,107.85c-.05,1.08-.56,1.83-1.73,1.87-.93.03-1.55-.63-1.64-1.46-.13-1.12.56-1.84,1.68-1.9.93-.05,1.4.64,1.69,1.49Z"/><path class="cls-116" d="M8.85,119.88c.03.95-.51,1.62-1.32,1.79-1.1.24-1.88-.42-2.07-1.5-.17-.94.53-1.58,1.31-1.78,1.13-.28,1.79.41,2.07,1.49Z"/><path class="cls-12" d="M43.31,109.78c-1.08-.07-1.82-.6-1.85-1.75-.03-.92.63-1.54,1.47-1.63,1.12-.12,1.83.57,1.88,1.69.04.92-.64,1.4-1.49,1.69Z"/><path class="cls-12" d="M43.02,118.32c.96,0,1.6.58,1.74,1.38.2,1.09-.44,1.87-1.56,2.01-.94.11-1.6-.58-1.75-1.36-.22-1.1.48-1.79,1.57-2.03Z"/><path class="cls-12" d="M41.42,96.16c0-.96.6-1.59,1.39-1.74,1.1-.21,1.85.46,1.99,1.58.11.94-.56,1.6-1.35,1.75-1.11.21-1.78-.5-2.02-1.58Z"/><path class="cls-45" d="M18.84,106.33c1.27.11,1.88.67,1.96,1.52.1,1.11-.54,1.85-1.69,1.88-.92.02-1.52-.64-1.64-1.47-.17-1.2.78-1.59,1.37-1.93Z"/><path class="cls-45" d="M7.18,109.78c-1.1-.18-1.8-.81-1.67-1.94.1-.84.72-1.44,1.65-1.46.95-.02,1.55.61,1.67,1.43.16,1.12-.5,1.79-1.65,1.97Z"/><path class="cls-12" d="M31.07,118.24c1.09.36,1.76.84,1.72,1.77-.05,1.13-.76,1.81-1.88,1.68-.83-.1-1.48-.71-1.48-1.64,0-1.2.95-1.51,1.64-1.82Z"/><path class="cls-12" d="M31.17,94.37c.92.09,1.53.65,1.61,1.5.11,1.12-.55,1.9-1.69,1.87-1.12-.03-1.78-.84-1.63-1.94.12-.81.77-1.39,1.7-1.43Z"/><path class="cls-116" d="M19.18,94.36c.93.09,1.53.65,1.62,1.5.11,1.12-.55,1.9-1.69,1.87-1.12-.03-1.79-.84-1.63-1.94.12-.81.77-1.39,1.7-1.43Z"/><path class="cls-45" d="M19.35,121.77c-1.08-.08-1.84-.6-1.86-1.76-.02-.92.63-1.49,1.47-1.64.93-.17,1.59.42,1.82,1.24.32,1.14-.37,1.8-1.43,2.16Z"/><path class="cls-12" d="M44.82,84.01c-.07,1-.64,1.62-1.48,1.71-1.12.12-1.83-.58-1.89-1.69-.04-.92.63-1.54,1.46-1.64,1.14-.14,1.74.59,1.9,1.62Z"/><path class="cls-116" d="M9.02,48.47c-.04,1-.56,1.51-1.55,1.49-.92-.02-1.72-.48-1.71-1.39.01-1.09.84-1.9,1.91-1.87.88.02,1.33.85,1.35,1.77Z"/><path class="cls-10" d="M336.02,176.09c-.08,25.54-.16,51.07-.21,76.61-.01,5.1-1.35,9.21-7.03,10.45-11.14.64-22.29.12-33.43.28-.62.04-1.19-.12-1.7-.49-1.44-2.49-1.36-5.03-.21-7.59,2.63-1.02,2.34,1.28,2.81,2.57.42,1.14.74,2.26,2.23,2.26,1.34,0,2.13-.87,2.63-1.97,1.23-2.74,2.07-5.62,2.6-8.57,2.25-12.51,5.91-24.56,11.54-35.98,3.2-6.49,7.54-12.19,12.81-17.05,3.35-3.09,4.91-6.41,4.58-10.94-.28-3.8-.05-7.65-.14-11.48.26-4.42-1.06-8.98,1.18-13.22.91-.56,1.78-.54,2.6.16,1.62,5.02,1.68,10.01-.27,14.97Z"/><path class="cls-30" d="M275.95,264.98c-1.37,3.39-4.68,4.07-7.57,4.83-5.27,1.38-10.65,2.2-16.18,2.18-28.45-.1-56.91-.04-85.36-.05-6.46,0-12.89-.26-19.35-.89-19.9-1.92-35.81,6.86-50.42,19.28-13.92,11.84-30.22,17.53-48.53,16.51-9.95-.55-19.73-2.24-28.28-8.12-1.86-1.28-3.35-2.66-4.14-4.76,1.71-1.69,3.67-1.42,5.69-.73,8.27,7.68,18.72,8.82,29.22,9.26,9.24.39,18.15-1.78,26.75-5.13,2.02-.79,3.97-1.72,5.46-3.37,1.27-1.19,3.1-1.05,4.52-1.88.34-.3.7-.57,1.06-.83,2.4-1.6,4.35-3.53,5.02-6.47-.05-3.5-.27-6.99.12-10.47.11-.96.31-2.19,1.49-2.28,1.27-.09,1.24,1.26,1.68,2.11.98,1.88-1.33,5.28,1.93,5.74,1.93.27,3.59-2.14,5.34-3.39,7.23-5.18,15.53-8.16,23.63-11.55,49.31,0,98.61,0,147.92,0Z"/><path class="cls-98" d="M128.04,264.98c-.2,2.15-1.96,2.45-3.52,2.97-8.74,2.94-16.7,7.32-23.94,13.01-1.01.8-1.86,2.26-3.36,1.66-1.84-.74-1.04-2.58-1.13-3.98-.12-1.8-.03-3.61-1.04-5.44v12.78c-1.8-.02-2.18-1.47-2.22-2.7-.22-6.32-1.18-12.68.65-18.93.38-.56.91-.88,1.58-.97,7.28.32,14.57.07,21.86.17,2.13.03,4.35-.25,6.15,1.35,1.66.02,3.31.04,4.97.06Z"/><path class="cls-96" d="M95.21,264.07c-.36-.05-.73-.11-1.09-.16.55-2.82,2.89-2.21,4.69-2.29,4.75-.22,9.52.06,14.28-.18,8.59-.11,17.18-.09,25.77-.03,13.33-.39,26.69.93,39.99-.91,8.83,1.8,17.76.56,26.64.9,2.14.08,4.29-.06,6.43.09,3.45-.14,6.91-.15,10.36.03,16.43-.04,32.85-.4,49.28,0,3.48-.17,6.95-.16,10.43-.02,4.06.17,8.29-1.06,12.09,1.41h.03c.24.24.3.46.17.64-.12.17-.23.25-.33.25-41.3.06-82.6.11-123.9.17-15.66.02-31.31.08-46.97.12-9.29.58-18.58.59-27.87,0Z"/><path class="cls-93" d="M293.95,263.79c.02-.31.07-.61.16-.91,11.56.09,23.11.18,34.67.27-4.12,1.65-8.42.66-12.62.75-7.4.15-14.81-.05-22.21-.11Z"/><path class="cls-120" d="M95.21,264.07c9.29,0,18.58,0,27.87,0-.01.28-.02.56-.01.84-7.89,0-15.79.03-23.68-.02-1.42,0-3,.51-4.18-.83Z"/><path class="cls-19" d="M336.02,176.09c-.06-4.97-.11-9.94-.17-14.91.64-.69,1.32-.69,2.05-.13,0,.31.01.62,0,.93.54,4.4,1.44,8.82-.95,13-.01.35-.03.69-.04,1.04-.3,0-.59.01-.89.07Z"/><path class="cls-39" d="M295.95,268.94c.33-1.33.66-2.66,1-3.98,1,0,2,0,3,0,.43,2.13-1.16,3.46-2.04,5.07-1.06.38-1.61-.18-1.96-1.09Z"/><path class="cls-82" d="M307.55,281.27c1.3.06,1.95.65,2.02,1.47.11,1.38-.82,2.07-2.11,2.06-.92,0-1.44-.64-1.38-1.61.06-1.15.89-1.59,1.47-1.92Z"/><path class="cls-45" d="M319.87,281.28c1,.1,1.65.67,1.69,1.5.07,1.38-.88,2.05-2.16,2.01-.91-.03-1.43-.69-1.31-1.65.13-1.08.75-1.73,1.78-1.86Z"/><path class="cls-116" d="M333.6,283.04c-.16,1.02-.82,1.63-1.9,1.75-.96.1-1.61-.43-1.62-1.35-.02-1.29.67-2.23,2.05-2.13.82.06,1.41.71,1.48,1.73Z"/><path class="cls-116" d="M345.57,283.12c-.29,1.08-.98,1.69-2.07,1.68-.94-.01-1.51-.59-1.43-1.54.12-1.29.83-2.16,2.2-1.9.81.15,1.35.83,1.3,1.76Z"/><path class="cls-116" d="M357.58,283.04c-.16,1.02-.82,1.64-1.9,1.75-.97.1-1.61-.42-1.62-1.35-.01-1.29.67-2.23,2.05-2.13.82.06,1.41.71,1.48,1.73Z"/><path class="cls-116" d="M369.56,283.06c-.22,1.05-.87,1.68-1.98,1.74-.96.05-1.57-.49-1.54-1.43.03-1.3.75-2.21,2.12-2.06.79.09,1.39.77,1.4,1.75Z"/><path class="cls-116" d="M333.6,294.92c-.1,1.06-.74,1.69-1.81,1.85-.94.14-1.64-.33-1.7-1.26-.08-1.28.55-2.24,1.94-2.22.86.01,1.4.68,1.57,1.63Z"/><path class="cls-116" d="M343.79,293.27c1.01.05,1.67.64,1.73,1.45.1,1.36-.8,2.07-2.1,2.06-.92,0-1.45-.64-1.36-1.6.1-1.08.7-1.75,1.72-1.91Z"/><path class="cls-116" d="M355.82,293.27c1,.1,1.66.66,1.7,1.5.07,1.37-.86,2.06-2.15,2.02-.91-.03-1.43-.69-1.31-1.65.13-1.07.72-1.75,1.76-1.87Z"/><path class="cls-116" d="M368.01,293.26c.85.27,1.55.75,1.5,1.66-.08,1.37-1,1.99-2.3,1.84-.97-.11-1.32-.87-1.15-1.77.2-1.05.82-1.71,1.95-1.73Z"/><path class="cls-45" d="M333.6,307.06c-.21,1.02-.86,1.66-1.96,1.72-.96.05-1.57-.5-1.55-1.43.03-1.29.73-2.23,2.11-2.07.79.09,1.4.77,1.41,1.78Z"/><path class="cls-45" d="M345.6,306.83c-.08,1.08-.69,1.74-1.77,1.92-.93.16-1.66-.26-1.73-1.21-.1-1.28.47-2.26,1.88-2.28.89-.01,1.4.67,1.63,1.57Z"/><path class="cls-45" d="M357.56,307.06c-.24,1.08-.92,1.7-2.02,1.72-.95.02-1.54-.55-1.48-1.49.08-1.29.76-2.21,2.15-1.99.8.13,1.37.81,1.35,1.76Z"/><path class="cls-116" d="M367.63,308.8c-1.06-.06-1.62-.58-1.59-1.52.03-1.07.59-1.92,1.7-1.99,1.11-.07,1.86.65,1.77,1.79-.08,1.11-.92,1.63-1.89,1.72Z"/><path class="cls-116" d="M320.03,296.79c-1.38-.01-1.95-.53-1.95-1.46,0-1.07.58-1.91,1.66-2.02,1.13-.12,1.84.61,1.82,1.73-.02,1.17-1.01,1.48-1.53,1.75Z"/><path class="cls-55" d="M308.94,272.95c-1.25-.11-2.9.25-2.81-1.76.07-1.6,1.33-2.09,2.76-2.16.99,1.3,1.01,2.6.05,3.92Z"/><path class="cls-12" d="M321.61,270.96c-.09,1.06-.76,1.67-1.83,1.83-.94.14-1.64-.33-1.7-1.26-.09-1.3.58-2.23,1.95-2.22.86,0,1.4.68,1.57,1.64Z"/><path class="cls-116" d="M333.6,271.16c-.32,1.08-1.03,1.68-2.12,1.66-.94-.02-1.51-.6-1.41-1.56.13-1.3.86-2.15,2.24-1.87.81.17,1.34.85,1.29,1.78Z"/><path class="cls-116" d="M345.59,271.06c-.16,1.02-.82,1.63-1.91,1.74-.96.1-1.61-.42-1.62-1.34-.02-1.29.67-2.22,2.05-2.13.82.06,1.41.71,1.48,1.73Z"/><path class="cls-55" d="M296.94,284.93c-1.06-.11-2.39.32-2.8-1.21-.23-.86.13-1.63.85-2.09,1.62-1.04,2.28.27,3.01,1.33-.36.66-.71,1.31-1.07,1.97Z"/><path class="cls-34" d="M295.89,293.25c.99.08,1.61.66,1.7,1.5.12,1.13-.57,1.84-1.7,1.89-.93.04-1.55-.62-1.65-1.46-.13-1.14.59-1.76,1.65-1.93Z"/><path class="cls-82" d="M309.64,295.05c-.26,1.09-.94,1.78-2.05,1.56-.8-.16-1.47-.8-1.34-1.75.15-1.11.93-1.77,2.02-1.56.78.15,1.39.8,1.38,1.76Z"/><path class="cls-12" d="M308,308.67c-.98-.04-1.61-.62-1.73-1.44-.16-1.11.5-1.85,1.63-1.95.94-.08,1.57.59,1.69,1.41.17,1.11-.51,1.79-1.58,1.98Z"/><path class="cls-82" d="M285.68,306.97c-.17,1.05-.8,1.75-1.93,1.63-.85-.09-1.5-.71-1.46-1.63.04-1.14.78-1.81,1.89-1.7.84.09,1.41.71,1.51,1.7Z"/><path class="cls-12" d="M296.11,305.23c.85.29,1.53.76,1.49,1.69-.05,1.13-.78,1.8-1.89,1.69-.84-.09-1.5-.71-1.47-1.63.04-1.15.78-1.68,1.87-1.74Z"/><path class="cls-12" d="M321.67,307c-.34,1.15-.99,1.87-2.12,1.59-.8-.19-1.45-.85-1.29-1.79.19-1.08.94-1.75,2.05-1.5.8.19,1.33.86,1.36,1.69Z"/><path class="cls-55" d="M285.66,295.16c-.37,1.02-1.01,1.74-2.17,1.4-.83-.24-1.43-.94-1.23-1.84.23-1.04.98-1.74,2.13-1.41.82.23,1.31.92,1.28,1.85Z"/><path class="cls-105" d="M367.58,248.85c-1.01.04-1.53-.48-1.57-1.44-.04-.93.45-1.75,1.31-1.79,1.06-.05,1.9.73,1.93,1.82.03.93-.76,1.35-1.67,1.41Z"/><path class="cls-82" d="M343.61,260.84c-1.01.04-1.53-.49-1.57-1.46-.04-.93.45-1.75,1.31-1.79,1.06-.05,1.91.74,1.94,1.84.03.93-.77,1.35-1.68,1.41Z"/><path class="cls-55" d="M355.87,260.83c-1.09.09-1.74-.32-1.84-1.29-.09-.88.28-1.77,1.17-1.91,1.1-.17,1.87.61,2.05,1.65.18,1.03-.7,1.32-1.37,1.54Z"/><path class="cls-55" d="M369.69,258.44c-.68,1.93-1.28,2.42-2.2,2.4-.98-.02-1.54-.55-1.47-1.53.08-1.1.6-1.93,1.86-1.63.8.19,1.53.64,1.81.77Z"/><path class="cls-116" d="M357.72,270.41c-.67,1.96-1.27,2.44-2.2,2.42-.98-.02-1.55-.56-1.48-1.55.08-1.1.59-1.95,1.87-1.65.8.19,1.54.65,1.82.77Z"/><path class="cls-55" d="M369.7,270.42c-.68,1.94-1.28,2.43-2.2,2.41-.98-.02-1.54-.55-1.47-1.53.08-1.1.59-1.94,1.86-1.64.8.19,1.53.64,1.81.76Z"/><path class="cls-105" d="M345.34,223.48c-.27.84-.81,1.35-1.72,1.39-.96.04-1.55-.47-1.55-1.4,0-.92.59-1.44,1.55-1.39.91.04,1.45.56,1.72,1.4Z"/><path class="cls-105" d="M357.29,223.57c-.35.98-1.03,1.36-1.89,1.3-.94-.06-1.43-.64-1.32-1.59.12-1.01.86-1.29,1.73-1.16.85.12,1.4.63,1.48,1.46Z"/><path class="cls-105" d="M357.25,247.64c-.31.87-.98,1.25-1.85,1.2-.94-.06-1.43-.63-1.32-1.58.12-1.01.86-1.3,1.72-1.17.83.13,1.46.57,1.44,1.56Z"/><path class="cls-82" d="M343.44,246.04c.85.04,1.66.3,1.81,1.23.15.96-.59,1.42-1.42,1.55-.87.13-1.61-.15-1.72-1.17-.1-.96.39-1.48,1.34-1.6Z"/><path class="cls-105" d="M343.48,236.86c-.98-.06-1.47-.61-1.39-1.54.08-.97.76-1.35,1.68-1.24.87.11,1.59.59,1.48,1.51-.11.88-.88,1.26-1.77,1.27Z"/><path class="cls-105" d="M369.31,223.48c-.27.83-.81,1.35-1.71,1.39-.96.04-1.54-.48-1.54-1.39,0-.92.58-1.43,1.55-1.39.91.04,1.44.55,1.71,1.39Z"/><path class="cls-105" d="M369.29,235.41c-.2.88-.75,1.38-1.64,1.44-.94.07-1.56-.39-1.59-1.33-.03-.92.52-1.46,1.49-1.44.9.01,1.47.5,1.75,1.33Z"/><path class="cls-105" d="M357.27,235.59c-.31.84-.92,1.29-1.81,1.26-.95-.03-1.46-.59-1.39-1.53.08-.97.76-1.35,1.67-1.24.86.1,1.45.56,1.52,1.51Z"/><path class="cls-21" d="M295.95,268.94c.65.36,1.31.72,1.96,1.09-.32.97-.65,1.93-.97,2.9-1.13.05-2.27.15-3.03-.97,0-1.46.73-2.43,2.03-3.01Z"/><path class="cls-21" d="M281.88,282.94c.63-1.26,1.57-2.02,3.05-1.92.71,1.31,1.41,2.68-.48,3.57-1.58.74-2.36-.09-2.58-1.64Z"/><path class="cls-87" d="M281.88,271.97c.19-1.83,1.08-2.94,3.04-2.95.6,1.15,1.44,2.34-.08,3.4-1.07.75-2.12.69-2.96-.45Z"/><path class="cls-103" d="M112.97,262.82c-4.77.03-9.54,0-14.31.13-1.54.04-3.33-.74-4.54.97.39,7.36-1.3,14.8.94,22.08-2.41,1.63-1.91,6.16-6.05,6.05-2.95,1.42-6.16,1.27-9.26,1.25-20.42-.11-40.85.53-61.27-.37-1.49-.06-3.01.1-4.33-.81-1.8-1.79-3.89-3.38-4.07-6.23-.65-1.07-.43-2.25-.43-3.4-.01-21.36-.01-42.71,0-64.07,0-1.14-.23-2.33.45-3.39-.58-3.06,2.4-6.24,5.34-6.18,7.96.17,15.92.12,23.88.12,16.59,0,33.17,0,49.76,0,4.15-.4,5.25,2.59,6.09,5.66.6,2.22.35,4.56.33,6.85.24,10.39.05,20.78.11,31.18q.04,7.66,7.71,7.75c.83,0,1.65.02,2.47.09,2.51.42,5.67-1.2,7.19,2.3Z"/><path class="cls-19" d="M89.06,292.84c-1.33,1.86-3.31.81-4.99,1.13-1.93,1.67-4.3,1.57-6.61,1.58-16.24.03-32.48.03-48.72,0-2.31,0-4.68.09-6.61-1.58-2,0-4,0-6,0-.86-.07-1.64-.28-1.95-1.22,14.55-.69,29.11-.24,43.66-.25,10.41,0,20.82-.52,31.22.34Z"/><path class="cls-57" d="M89.06,292.84c-24.96-.03-49.92-.06-74.88-.09,0-.21,0-.43-.04-.63,24.95-.02,49.91-.05,74.86-.08.03.27.05.53.05.8Z"/><path class="cls-46" d="M10.1,215.04c0,23.62-.01,47.23-.02,70.85,0,0-.45.02-.45.02,0,0-.44-.06-.44-.06,0-22.05-.03-44.1,0-66.14,0-1.58-.62-3.35.91-4.67Z"/><path class="cls-54" d="M53.12,207.84c0-.83.11-1.68-.04-2.49-1.06-5.72,1.27-8.79,6.6-11.41,8.99-4.41,12.56-12.98,14.47-22.43,1.34-6.64,3.1-13.19,4.83-19.75,3.09-11.71,2.25-23.19-1.32-34.67-2.84-9.12-3.43-18.44-1.85-27.96.83-4.99,2.53-8.1,8.25-7.17.62.1,1.39-.68,2.09-1.06.94-.03,1.44.54,1.83,1.28.86,7.66,3.93,15.22,1.05,23.06-3.37.71-3.29-1.68-3.4-2.7.58,2.79.7,6.84,1.91,10.66,2.94,9.23,4.68,18.6,3.84,28.32-.19,2.2.77,3.78,2.12,5.28-.92,4.84-4.72,8.74-4.5,13.94-1.67,2.11-2.09,4.2-.7,6.78,1.72,3.2,2.64,6.77,3.92,10.18.35,1,.54,2.01.41,3.07-.94,6.3-2.11,12.57-2.21,18.97-.02,1.46-.13,2.97-1.45,4-.09,3.89-2.34,4.44-5.76,4.35-10.02-.28-20.06-.2-30.09-.26Z"/><path class="cls-92" d="M88.97,203.76c-.07-7.99.68-15.89,2.75-23.63,1.68.47,1.92,1.83,2.03,3.27-.25,2.77,2.1,5.1,1.07,8.21-.45,1.38,2.51,1.66,3.3,3.13,2.55,4.33,3.99,9.1,5.65,13.79,1.73,4.89,2.5,5.32,7.25,3.46,4.18-1.63,8.48-2.91,12.63-4.6,1.79-.73,3.66-1.77,5.68-.5,1.9,3.17-.08,7.8,3.85,10.21.15.47.14.93-.04,1.39-1.88,4.43-2.01,8.85-.89,13.6,1.11,4.7,3.32,7.65,8.29,8.1.49.08.94.25,1.37.49,1.95,2.04,1.63,4.59,1.14,6.93-.35,1.68.54,1.51,1.46,1.69,1.32,4.14-.77,7.81-1.66,11.63-.45,1.95-2.53,1.18-3.74,1.9-8.71,0-17.43,0-26.15-.01-2.13-1.69-4.63-.49-6.92-.87-2.69-5.99-1.25-12.37-1.64-18.56-.14-2.26,2.34-2.36,4.22-2.4,4.46-.11,8.91.08,13.38-.78,3.18-.61,4.02-2.05,4.1-5,.12-4.18-1-8.22-1.08-12.37-.05,3.98,1.17,7.84,1.06,11.86-.09,3.15-1.24,4.75-4.46,5.48-4.95,1.11-9.91.68-14.87.75-3.52.05-4.23-2.68-4.99-5.25-1.59-5.41-2.8-11.01-7.7-14.67.09-4.74.64-9.67-5.01-12.01-.03-1.74-.07-3.48-.1-5.22Z"/><path class="cls-103" d="M308.9,100.93c.34.03.67.07,1.01.1,17.03-.32,34.06.56,51.1-.25,1.46-.07,5.58,2.34,3.92,6.31,1.03,6.55.43,13.15.41,19.72-.03,9.05.6,18.12-.38,27.16-.74,2.7-1.75,5.24-4.04,7.05-9.51-.75-19.01-.9-28.53.11-7.07.75-14.19.24-21.29.24-5.56-1.66-7.43-3.55-7.55-9-.33-14.48-.2-28.96-.06-43.44.04-3.78,1.5-6.76,5.42-7.99Z"/><path class="cls-46" d="M364.95,153.96c0-15.62-.02-31.25-.03-46.87,1.53,1.3.91,3.08.92,4.65.04,14.06.01,28.13,0,42.19,0,0-.45.06-.45.06l-.45-.02Z"/><path class="cls-26" d="M336.95,174.99c.52-4.32-1.2-8.8.95-13,5.63,0,11.26-.01,16.89.06,1.08.01,2.6-.65,3.16.55.65,1.38-.63,2.42-1.52,3.37-4.25,4.56-10.05,6.11-15.66,8.03-1.24.42-2.54.66-3.82.99Z"/><path class="cls-26" d="M310.76,160.18c15.68-.06,31.35-.12,47.03-.18,1.14,0,2.34-.12,3.13,1.01-7.67.01-15.35.03-23.02.04-.68.04-1.36.09-2.05.13-.65-.02-1.29-.05-1.94-.07-7.1,2.7-14.35,1.51-21.57.78-.86-.09-1.42-.81-1.58-1.72Z"/><path class="cls-66" d="M87.51,81.86c-.46-.31-.91-.63-1.37-.94-.06-.33-.22-.61-.46-.85,2.47-10.9,10.54-15.6,20.43-17.76,9-1.97,17.14-.39,22.84,7.8,3.92,1.92,3.74,6.1,5.17,9.39,1.54,2.98,4.67,4.51,6.57,7.16,1.79,2.5,4,4.78,4.22,8.11-2.99,8.53-4.92,17.31-6.16,26.25-.95,1.27-1.68,3.54-3.56.83-1.21-4.27.1-8.72-.92-12.99-1.19-4.98-1.76-10.08-2.92-15.23-1.41,3.53-2.77,6.85-6.05,8.88-.69.28-1.4.34-2.13.21-4.34-1.75-7-4.74-7.58-9.58-.28-2.29-.84-4.97-4.41-3.11-1.18.61-2.23-.23-3.22-.83-.84-.51-1.63-1.5-2.61-1.34-7.04,1.17-11.52-5.17-17.85-6Z"/><path class="cls-119" d="M238.83,75.03c2.2-4.2,5.43-6.5,10.31-5.19,3.66.99,4.19-3.76,7.46-3.76,1.41,0,2.63-1.88,4.37-2.05,11.03-1.82,14.67.21,18.02,10.64,1.12,3.49,3.15,6.5,4.34,9.91-1.33,3.14-3.55,4.95-7.1,4.77-3.5-3.94-5.21-8.76-6.76-13.65,1.45,4.86,3.15,9.6,6.6,13.5-1.8,4.14-6.39,6.61-10.25,4.9-2.92-1.3-4.58-.57-4.22,2.23.71,5.49-2.65,7.76-6.57,9.92-3.61-.12-4.35-3.21-5.55-5.62-1.44-2.88-2.86-5.64-6.22-6.67-4.9-3.24-6.64-8.07-6.87-13.66.35-1.97.34-4.11,2.45-5.27Z"/><path class="cls-19" d="M132.94,80.17c-1.1-3.44-1.99-6.97-3.98-10.06,2.18-1.75,4.59-2.62,7.39-1.8,4.62,1.36,7.53-.85,9.84-4.54,2.61-4.16,3.37-8.96,4.89-13.5,2.1-6.26,5.41-11.68,10.36-16.08,1.07-.95,2.12-2.79,3.69-1.71,1.74,1.2-.82,2.1-.79,3.29.01.44.33.87.5,1.3.59,4.25-.95,8.41-.49,12.65-.07.82-.04,2.01-.64,2.3-5.36,2.54-4.28,7.82-5.18,12.17-.53,2.54-.21,5.24-.79,7.83-.53,2.38.56,4.08,2.22,5.64,1.13,1.06,2.16,2.33-.13,3.37-8.99.59-18,1.87-26.87-.86Z"/><path class="cls-19" d="M238.83,75.03c-.55,1.72-1.1,3.44-1.65,5.16-1.59,1.53-3.63,1.42-5.56,1.39-6.38-.12-12.78.56-19.13-.44-.92-.38-2.21-1.02-1.54-2.05,3.05-4.65.22-8.99-.46-13.42-.38-2.45-1.06-4.86-1.9-7.2-.25-.7-.51-2.11-1.35-1.63-5.47,3.09-2.41-2.88-4.11-3.75-.23-.96-.35-1.93-.41-2.92-.5-5.5-1.44-10.84-5.08-15.3-.62-.76-1.08-1.68-.71-2.76,1.47-2.13,3.1-1.73,5.01-.51,7.2,4.58,11.05,11.61,14.1,19.2,1.91,4.74,3.55,9.59,5.51,14.3,2.02,4.85,5.36,7.89,11.1,6.96,2.74-.45,4.8.56,6.18,2.97Z"/><path class="cls-66" d="M196.93,32.12c4.94,4.96,6.91,11.05,6.81,17.92-4.76,2.63-5.8,2.51-8.25-1.93-2.14-3.86-5.08-4.95-9.15-3.61-2.52.83-5.01,1.8-7.71,1.9-3.28.03-6.57.16-9.52-1.69-3.39-3.23-2.07-6.95-1.1-10.63,7.13-7.16,19.22-7.98,28.91-1.96Z"/><path class="cls-110" d="M282.93,84.98c-2.23-2.47-3.73-5.29-4.77-8.48-3.75-11.46-5.22-12.46-17.19-12.46,4.99-3,10.21-2.16,15.25-.48,3.81,1.28,7.59,2.86,10.81,5.44,1.03,2.19,3.33,3.15,4.79,4.95,3.41,4.19,3.84,7.26,1.44,11.75-3.54,1.18-7.13,3.05-10.32-.73Z"/><path class="cls-24" d="M168.01,34.08c1.59,3.2-1.13,6.87,1.09,10.01.42,3.47-.86,6.77-1.07,10.18-.08,1.4-.98,2.43-2.66,2.22-3.09-1.43-1.13-4.56-2.24-6.65-.02-4.33-.88-8.78,1.71-12.76,1.06-1,2.12-2,3.18-3Z"/><path class="cls-84" d="M292.94,85.09c2.4-4.78-.33-8.15-3.03-11.65-1.06-1.38-3.64-1.86-2.89-4.43,4.8,2.28,8.36,5.57,9.11,11.16-.42,1.68-.83,3.37-1.25,5.05-.68.45-1.33.38-1.94-.13Z"/><path class="cls-109" d="M92.8,60.02c-.04.98-.62,1.6-1.44,1.72-1.09.16-1.85-.48-1.94-1.61-.07-.93.59-1.56,1.4-1.68,1.1-.17,1.78.5,1.97,1.57Z"/><path class="cls-113" d="M79.05,73.8c-1.13-.25-1.81-.93-1.6-2.03.15-.79.79-1.47,1.74-1.35,1.1.15,1.78.89,1.57,2-.15.8-.81,1.36-1.71,1.38Z"/><path class="cls-60" d="M310.76,160.18c7.66,1.82,15.46.12,23.15.94,0,4.62,0,9.25-.01,13.87-2.97,2.29-6.65,2.72-10.09,3.6-3.64.93-4.53-1.54-4.29-4.64-.3-3.71-3.37-3.26-5.64-3.41-5.62-.38-11.22-.89-16.78-1.86-3.27-2.44-3.33-6.35-4.47-9.77-.24-1.23-.67-2.41-.8-3.66.13-3-1.5-5.38-2.82-7.87-1.96-4.97-3.2-10.27-6.63-14.57-3.29-3.72-8.07-5.7-11.23-9.58-.68-1.11-1.15-2.23-.21-3.43,4.64-.12,8.04-2.47,10.9-5.93,1.05-1.26,2-2.82,3.59-3.37,2.69-.94,3.1-2.88,3.4-5.39.46-3.86,1.17-7.8,5-10.08,2.42-.2,3.88,1.06,5.15,3.01,2.14,3.28,4.54,6.3,8.73,2.33.11-.11.78.37,1.19.57-3.1,2.23-4.13,5.27-4.1,9.04.12,13.74.07,27.49.05,41.23,0,4.32,1.02,7.9,5.9,8.98Z"/><path class="cls-115" d="M293.83,95.02c-1.94,4.15-4.48,8.11-3.88,13.04.12.97.1,2.51-.89,2.59-5.04.41-6.52,5.15-9.74,7.73-2.52,2.03-5.08,2.89-8.18,1.9-7.15-2.16-11.89-7.22-15.87-13.2-.26-.38-.44-.79-.53-1.24,3.22-2.85,6.9-5.34,5.43-10.74-.39-1.44.83-3.28,2.48-3.95,1.93-.78,2.39,1.03,3.24,2.2,1.59,2.2,2.85,0,4.19-.48,2.27-.81,4.93-1.03,6.06-3.71h-.02c2.77-.58,4.48-2.89,6.82-4.17,3.32,1.66,6.67.45,10,.11.65.04,1.29.09,1.94.13.6,3.37-.89,6.51-1.05,9.8Z"/><path class="cls-47" d="M320.72,173.53c-.6,4.21.72,5.32,4.73,3.32,2.58-1.29,5.48-1.92,8.45-1.87.74,10.37-.45,19.01-9.04,27.44-12.73,12.51-16.44,30.24-19.8,47.42-.55,2.8-1.6,5.4-2.25,8.13-.64,2.67-1.81,4.31-5.1,4.03-3.58-.31-2.5-2.75-2.78-4.71-.12-.79-.46-1.55-.7-2.33-1.47-.92-1.62-2.46-1.68-3.94-.5-12.24-1.49-24.45-2.48-36.65,7.76-4.98,10.49-13.92,16.1-20.6,4.94-1.55,7.62-4.65,6.91-10.09,1.96-3.83,3.35-8.09,7.64-10.16Z"/><path class="cls-103" d="M291.02,212.73c2.24,13.99,2.29,28.15,3.2,42.24-.05,2.64-.09,5.28-.14,7.93-4.09,0-8.18.01-12.28.02-2.58-4.2-.55-9.1-2.03-13.47-.8-11.19-.31-22.4-.3-33.6,0-1.32.27-2.63,1.03-3.77,3.64-1.91,7.23-3.08,10.52.65Z"/><path class="cls-90" d="M22.12,293.96c20.65,0,41.3,0,61.94,0,.01,2.06-1.51,2.82-3.05,3.49-17.77,7.74-35.73,9.01-53.89,1.45-2.25-.93-4.76-1.86-5-4.94Z"/><path class="cls-103" d="M137.94,120.76c.59-9.21,2.07-18.2,6.47-26.48.06-1.31.83-2.31,1.96-2.56,5.87-1.29,11.41-4,17.55-4.13,1.04.61,1.58,1.48,1.45,2.72-3.36,6.7-1.79,13.52-.34,20.29.83,3.86,1.73,7.71,2.28,11.62.19,3.24-.53,6.12-2.71,8.71-2.02,2.41-1.71,4.99.82,6.9,2.46,1.86,5.04,1.58,7.05-.76,2.12-2.47,1.47-4.86-.79-6.94-1.32-1.21-3.02-2.08-3.62-3.96-.84-7.01-2.66-13.82-3.93-20.74-.54-2.93-.73-5.85-.11-8.79.79-1.93,1.13-4.69,4.25-3.42,2.94,1.2,2.55,3.5,1.26,5.81-1.24,2.21-1.06,4.47-.3,6.77,4.01,12.17,7.97,24.37,13.1,36.14,1.7,4.69.99,9.56,1.07,14.37.12,7.16-.05,14.32.09,21.48.18,2.5.03,4.99-.02,7.49-1.01,12.41-.64,24.87-1.52,37.29-.74,10.42-.3,20.91-1.36,31.33-.24,2.42.42,5.06-1.74,7-.93,1.99-2.63,2.11-4.55,2.09-11.73-.1-23.46-.11-35.19-.15,4.94-3.58,3.92-9.18,4.77-14.14-1.56-2.98-1.09-6.25-.74-9.27.71-6.1.99-12.26,2.29-18.28.35-2.22.34-4.49,1.08-6.65.86-4.86,1.73-9.71,2.14-14.64-.24-3.14,1.16-6.11.99-9.24,1.54-11.88,2.74-23.79,3.87-35.71.29-8.27-1.46-16.42-1.45-23.59-1.76,17.43-3.52,35.94-6.63,54.29-1.5,8.84-2.82,17.71-4.14,26.58-.34,2.29-.53,4.64-1.84,6.67-2.41,1.48-4.48.78-6.38-1.01-6.51-1.7-3.27-7.01-4.02-10.85-1.02-2.48-.22-4.94.1-7.4.73-7.63,1.43-15.27,2.87-22.82,1.38-11.04,2.03-22.15,2.42-33.25.19-5.49.92-10.93,1-16.41.03-2.5,2.37-3.98,2.5-6.37Z"/><path class="cls-103" d="M271.81,262.91c-16.58.01-33.15.03-49.73.04-1.77-2.7-.82-5.01,1.05-7.18,1.54-.07,1.55,1.95,3.27,2.26.25-12.52.1-24.93.15-37.33.02-5.12.55-10.27-.43-15.36-.84-3.42-4.45-5.28-4.99-8.87,2.15-7.94,6.16-15.12,10.44-21.96,5.19-8.29,6.89-16.49,4.3-26.02-2.38-8.76-3.65-17.82-6.47-26.9-2.57,15.79-2.59,31.18-1.28,46.65.61,7.17-2.86,13.05-7.68,18.15-2.53,0-2.73-2.25-3.67-3.79-4.54-10.83-9.15-21.64-13.68-32.48-1.67-3.99-.9-7.73.8-11.44,3.15-1.52,6.42-1.32,9.6-.31,2.15.68,4.13,1.04,6.1-.31.4-.51,1.04-.82,1.33-1.44-.4.23-.69.57-1.02.9-1.8,1.65-3.94,2.25-5.78.58-1.76-1.59-.01-3.4.63-4.96,1.83-4.44,3.03-9.06,4.25-13.68.27-.98.62-1.94.77-2.95,1.43-3.98.68-7.48-2.45-10.33-1.91-1.74-2.56-3.72-1.88-6.21.91-3.33.83-6.81,1.52-10.18,1.78-1.14,3.57-.52,5.22.19,4.41,1.89,9.14,2.9,13.43,5.08,3.67,2.56,4.82,6.58,6.06,10.53,1.44,4.59,2.05,9.37,3.1,14.04.49,2.6,1.44,5.22,1.37,7.8-.16,5.49,6.8,7.73,6.57,11.06-.36,5.23.98,8.81,3.83,12.56,5.11,6.72,9.71,13.8,14.67,20.64,1.86,5.63,1.55,11.32.49,17.03-1.33,2.28-3.51,2.56-5.84,2.45-2.38-.68-3.92-.11-4.72,2.52-.74,2.41-1.05,5.14-3.41,6.78-2.71.4-5.13-.11-7.1-2.16-1.35-2.69.51-4.77,1.4-7,1.89-4.77,4.25-9.44,2.52-14.82.36-2.32,2.75-3.72,2.82-6.17.04-1.35-.09-2.9-1.52-3.31-1.52-.44-1.64,1.28-2.15,2.19-1.3,2.29-1.92,4.87-2.86,7.32-3.08,6.13-5.89,12.4-9.33,18.35-7.36,8.98-9.29,18.97-6.42,30.26,1.34,5.27,1.42,10.86,1.98,16.31.56,5.44,1.35,10.86,1.94,16.34,1.55-11.86,2.73-23.74,4.57-35.53.36-2.3.74-4.6,1.1-6.89.59-3.74,1.49-6.88,6.62-5.52,3.14.83,2.9-3.16,4.84-4.23,4.53.45,4.75-4.09,7.11-6.16,2.82-.23,5.59-.3,7.93,1.68.82,2.26-.7,3.83-1.83,5.36-1.84,2.48-2.36,4.3,1.45,5.1.66.14.88.93,1.16,1.55.39,12.02,1.36,24.02,1.3,36.04-.05.55-.16,1.09-.3,1.62-1.18,3.53-.64,7.15-.49,10.75-.02.55-.24.99-.66,1.33Z"/><path d="M178.86,260.9c1.06-25.31,2.12-50.62,3.19-75.93,3.09-2.18,6.67-2.24,10.23-2.38,6.03-.26,11.99-1.61,18.07-1.02,3.54.21,5.03.36,3.2,5.17-2.52,6.61-1.22,14.13-.64,21.22,1.35,16.76.36,33.54.6,50.31.02,1.68-.27,3.32-1.52,4.61-10.04.07-20.08.12-30.12.25-1.69.02-2.9-.26-3-2.22Z"/><path class="cls-51" d="M211.98,262.87c0-15.77.39-31.56-.16-47.31-.32-9.09-.86-18.18-.82-27.29,0-2.13-.69-4.76,2.93-4.88-1.4-.19-2.79-.37-4.19-.56,2.37-3.48,5.29-2.18,8.21-.96.66,1.39,1.32,2.78,1.98,4.17,1.79,2.71-1.05,5.31-.2,7.99-3.34,5.19.05,8.69,3.08,12.3,1.12,1.33,2.87,2.32,2.69,4.45-.05,4.76-.7,9.54.5,14.25.16.56.25,1.13.32,1.7.31,8.62-.85,17.13-1.84,25.64-.15,1.31-.33,2.64-1.42,3.6-.33,2.33-.66,4.65-.99,6.98-3.37-.03-6.74-.06-10.1-.09Z"/><path class="cls-28" d="M271.81,262.91c0-.36-.01-.71-.02-1.07-.45-3.66-.6-7.31.08-10.96h-.01c2.94-1.7,5.94-2.84,9.27-1.02,1.05,4.31.44,8.7.67,13.05-3.33,0-6.66,0-9.99,0Z"/><path class="cls-40" d="M51.81,279.11c-16.1,0-28.8-12.67-28.79-28.74,0-16.07,12.7-28.75,28.79-28.75,16.05,0,29.06,12.92,28.95,28.73-.11,15.97-12.98,28.75-28.95,28.75Z"/><path class="cls-99" d="M94.08,220.99c5.3.53,6.11,4.79,7.41,8.75,3.37,10.27,3.42,10.26,14.25,10.21,9.24-.04,10.33-1.46,8.59-10.68-.72-3.84.07-7.82-.69-11.74,3.86,2.67,2.64,7.1,3.18,10.57,1.8,11.64-.22,13.61-12,13.88-2.96.07-6.47-1.15-8.75.59-2.59,1.96.43,5.14.1,7.92-.45,3.77-.12,7.63-.12,11.45q-11.99.03-11.99-11.72c0-9.74.02-19.48.02-29.23Z"/><path class="cls-13" d="M87.51,81.86c5.37,1.14,11.66.27,14.52,6.82,2.02-.38.77-3.32,2.27-3.21,1.28.09,2.53,1.39,3.68,2.3,1.47,1.15,2.24,1.94,4.34.1,2.69-2.36,4.04,1.22,4.04,2.86,0,5.31,3.25,8.38,6.68,11.5,2.38.55,2.43,1.21.76,3.14-4.13,4.79-9.12,8.19-14.91,10.55-7.51,2.32-10.48,1.4-14.55-5-1.43-2.24-3.05-4.22-4.97-6-.37-.54-1.16-1.23-1.03-1.59,2.62-7.28-2.22-14.27-.81-21.48Z"/><path class="cls-74" d="M89.36,104.92c2.19-.06,3.74.69,4.68,2.87,2.84,6.58,7.37,10,14.84,7.48,2.07,1.77,1.04,3.95.77,6.01-.68,5.2-2.97,9.8-5.49,14.29-1.01,1.66-2.82,2.46-4.12,3.82-.6.66-1.07,1.42-1.55,2.17-1.83,1.81-2.17,5.07-5.39,5.51-1.88.05-3.38.19-3.09-2.75,1.12-11.4-1.05-22.39-4.29-33.3-1.2-4.04-1.09-8.48-1.49-12.74-.05-.58.32-1.3,1.29-1.36,2.06,2.25-1.92,7.55,3.85,8Z"/><path class="cls-103" d="M93.09,147.08c1.51-2.04,3.01-4.09,4.52-6.13,2.03-1.5,4.42-2.23,6.75-3.06,6.46-2.91,12.38-6.85,18.79-9.85,1.58-.74,2.99-2.23,5.01-1.25,1.93,3.2,1.02,5.77-1.45,8.34-4.21,4.37-8.22,8.93-12.61,13.13-1.46,1.39-2.5,3.03-3.17,4.92-.72,1.46-2,2.23-3.44,2.8-2.09.74-4.23,1.37-6.24,2.34-4.32.94-8.08,4.65-12.99,2.66-1.18-5.6,2.47-9.52,4.84-13.89Z"/><path class="cls-56" d="M101.14,157.17c1.98-.72,3.95-1.44,5.93-2.16,2.11.37,3.89,1.37,4.05,3.64.51,7.51.83,15.04.02,22.56-.09.8-.59,1.52-1.07,2.18-.1.11-.2.26-.33.34-2.48,1.53-4.78.05-6.2-1.33-2.75-2.68-2.36,1.1-3.6,1.35-2.24.47-4.46,1.01-6.67-.07-.51-1.19-1.03-2.37-1.54-3.56-.16-.73-.32-1.45-.48-2.18-1.31-6.39,2.22-10.89,6.02-15.25,1.49-1.71,3.44-3.08,3.86-5.53Z"/><path class="cls-65" d="M101.14,157.17c2.43,1.58.68,2.7-.49,3.73-5.17,4.57-8.56,10.1-9.4,17.05-2.44-4.29-2.98-9.35-5.86-13.54-1.77-2.59,2.68-1.57,2.87-3.43,4.65-.06,8.45-3.02,12.88-3.81Z"/><path class="cls-85" d="M93.26,183.69c1.29-.24,2.65-.87,3.87-.66,3.53.62,3.9-.92,2.17-4.24,3.78,2.06,6.76,3.69,9.73,5.31,6.51,2.17,12.45-2.02,18.82-1.71,1.64.08,1.72-1.68,1.58-3.06-.16-1.62-.64-3.26.41-4.78,3.13-2.03,4.06-.94,3.4,2.39-.92,7.61-1.84,15.21-2.76,22.82-3.97-.12-7.85-.95-11.69-1.79-4.54-.99-8.96-1.77-13.64-.87-2.79.54-5.58-.13-7.75-2.28-1.64-1.59-8.05-.83-2.86-5.79-3.4.4-.48-2.68-1.96-3.58-.97-.59.07-1.3.68-1.77Z"/><path class="cls-61" d="M97.4,194.83c9.87.87,19.88.36,29.58,3.07,1.35.38,3.09-.19,3.51,1.86-.7,2.37.2,5.05-1.42,7.25-6.83,2.42-13.72,4.67-20.44,7.35-2.97,1.19-3.99.45-4.92-2.37-1.92-5.78-4.18-11.45-6.3-17.17Z"/><path class="cls-86" d="M139.9,240.94c-2.49-.05-5.31.52-6.62-2.42-2.97-6.63-4.51-13.41-1.33-20.47,3.41,2.5,1.76,6.4,2.83,10.1,2.03-3.31,1.93-7.54,5.44-9.53,1.42-.1,2.55.4,3.38,1.56-.4,6.47,1.7,13.15-1.61,19.37-3.67,2-2.23-2.7-3.86-2.83.57,1.16,1.44,2.57,1.76,4.22Z"/><path class="cls-64" d="M141.15,239.99c2.53-6.41-.08-13.36,2.12-19.81,1.69-1.66,2.78-.74,3.71.86-1.28,9.19-2.9,18.34-3.1,27.65-.58.02-1.02,2.51-1.61.3-.71-2.62.29-5.53-1.03-8.13-.73-.22-.76-.52-.09-.88Z"/><path class="cls-49" d="M140.08,219.02c-1.59,3.74-3.19,7.47-5.02,11.76-3.41-4.05-.97-8.99-3.12-12.73.38-.06.75-.12,1.13-.18,1.97.34,3.93.68,5.9,1.02.41-.29.77-.25,1.1.14Z"/><path class="cls-80" d="M141.15,239.99c.1.29.13.58.09.88-.45.03-.89.05-1.34.08-1.62-2.09-3-4.26-2.68-7.36,2.35,1.78,1.54,5.06,3.93,6.41Z"/><path class="cls-42" d="M313.84,130.32c.05-11.97,9.68-21.39,21.72-21.23,11.59.15,21.18,9.93,21.09,21.51-.09,11.58-9.81,21.25-21.37,21.29-11.93.03-21.49-9.58-21.44-21.57Z"/><path class="cls-95" d="M133.24,176.95c.07-2.93-1.07-3.45-3.35-1.68-4.21,1.77-5.04-.99-5.06-4.09-.04-5.27-2.02-9.98-3.65-14.83-1.08-3.22-2.77-4.72-6.26-3.14-1.47.67-3.14,1.15-4.74.1-.2-1.53.02-2.89,1.17-4.08,4.55-4.72,9.04-9.52,13.64-14.15,2.64-2.65,3.16-4.97,3.06-8.09-.66-1.27.8-2.17.57-3.37.21-1.27,1.01-2.24,1.67-3.29.66-.89,1.4-1.66,2.63-1.65,1.12.33,1.88,1.07,2.4,2.09.25.59.55,1.17.63,1.82,2.44,1.31.95-1.64,1.99-1.84-2.65,15.88-1.46,32.06-3.85,47.95-.41,2.74.84,5.64-.85,8.23Z"/><path class="cls-1" d="M132.84,118.99c-.62.59-1.23,1.19-1.85,1.78-7.59,7.4-17.64,10.56-26.7,15.41-.44.24-.93-.06-1.28-.45,2.91-6.55,6.3-12.95,5.87-20.46,5.27-3.16,10.35-6.49,14.59-11.08,1.46-1.59-.63-1.29-.44-1.97.71-.06,1.43-.12,2.14-.18.35-.05.83-.05.92.18,2.1,5.65,5.76,10.67,6.75,16.77Z"/><path class="cls-15" d="M163.99,87.92c-6.25,2.98-13.52,2.83-19.58,6.37-3.02-4.71-5.57-9.83-11.04-12.36-.76-.35-.48-1.13-.43-1.76,9.33-.08,18.67-.15,28-.23,4.53-2.33,9.25-1.41,13.95-.81,1.27.53,1.69,1.38.99,2.64-.27.44-.63.81-1.05,1.11-3.75,1.38-6.53,4.86-10.84,5.05Z"/><path class="cls-11" d="M132.84,118.99c-3.62-5.17-5.65-11.05-7.67-16.95,2.36-3.35,4.74-6.68,6.39-11.51,2.32,6.31,2.45,12.05,3.66,17.55.57,4.63.34,9.26.13,13.9-.84-1-1.67-2-2.51-3Z"/><path class="cls-25" d="M135.35,121.99c-.04-4.63-.08-9.26-.13-13.9,1.73,4.76.51,9.67.73,14.51-.28-.11-.48-.32-.6-.61Z"/><path class="cls-77" d="M235.02,95.92c-5.89-2.15-11.78-4.29-17.67-6.44-1.55-.46-2.49-2.2-4.34-2.07-2.37-1.09-4.4-2.72-6.42-4.31-1.13-.89-3.01-1.94-.91-3.77,1.89-.63,3.74-.86,5.39.61,8.7.09,17.4.17,26.09.26.34,5.33,2.53,9.7,6.72,13.05-1.95,4.24-5.7,2.5-8.88,2.67Z"/><path class="cls-83" d="M235.02,95.92c2.73-1.65,6.35-.37,8.88-2.67,2.64.33,4.2,1.66,5.27,4.26,1.27,3.08,2.3,6.51,5.56,8.34,0,0,.26.22.26.22.29,3.92-2.06,6.71-4.15,9.61-2.25,1.63-4.05,4.01-7.1,4.36-1.24-5.07-2.46-10.15-3.72-15.22-.85-3.42-2.39-6.46-5.01-8.89Z"/><path class="cls-79" d="M276.14,89.15c-5.48-4.06-7.01-9.98-7.2-16.53,2.39,5.51,4.78,11.02,7.18,16.53,0,0,.02,0,.02,0Z"/><path class="cls-26" d="M175.68,80.26c-4.91-.11-9.82-.21-14.74-.32-4.35-2.36-5.33-5.44-4.25-10.58,1.03-4.91.88-10.16,2.37-15.08.44-1.45-.28-5.99,3.56-2.1.17-.78.34-1.56.51-2.34.73,2.03,1.47,4.06,2.2,6.1,2.44,6.95,7.01,12.62,11.23,18.49,1,1.39,1.68,2.86.97,4.62-.42.7-1.01,1.14-1.85,1.22Z"/><path class="cls-58" d="M178.95,45.25c2.82-.85,5.64-1.71,8.47-2.56,3.42-1.03,6.93-.16,7.99,2.92,1.59,4.66,4.12,5.66,8.34,4.43.11,1.02.23,2.04.35,3.06.81,3.73.95,7.42-.61,11.01-1.89,4.34.19,8.76-.32,13.12-2.01,5.54-6.68,8.43-11.31,11.37-.82.14-1.56,0-2.19-.56-.86-3.19-2.54-5.9-4.26-8.74-5.48-9.05-8.23-19.14-9.92-29.54-.49-3.01.59-4.33,3.47-4.51Z"/><path class="cls-26" d="M202.25,78.17c-3.35-8.65,1.59-16.68,1.84-25.07,1.54.96.4,2.86,1.38,4.03,1.29-.9-.38-3.43,1.69-3.52,1.96-.09,1.87,2.07,2.25,3.37,1.57,5.37,2.89,10.81,4.47,16.17.93,3.14-1.04,4.87-2.8,6.79-1.91.08-3.83.17-5.74.25-.3.35-.68.48-1.14.39-1.13-.42-1.7-1.29-1.96-2.41Z"/><path class="cls-112" d="M178.95,45.25c-1.06.91-2.89.65-2.42,3.37,1.84,10.56,4.53,20.81,9.94,30.1,1.73,2.97,4.76,5.2,3.56,9.23-.29.4-.68.68-1.15.83-.73.15-1.45.08-2.15-.16-3.64-2.77-8.28-4.53-9.77-9.52-.19-5.05-4.36-7.86-6.87-11.49-2.54-3.66-4.38-7.29-4.78-11.68,2.08.13,1.8-1.18,1.66-2.56-.32-3.31-.12-6.54,2.11-9.28,3.28.39,6.57.77,9.85,1.16Z"/><path class="cls-70" d="M286.39,81.71c-3.96-3.14-4.18-8.24-7.28-11.58,5.23,2.77,6.11,4.22,7.28,11.58Z"/><path class="cls-70" d="M285.49,71.86c3.57,2.53,6.33,5.56,6.11,10.29-1.57-3.71-4.26-6.72-6.11-10.29Z"/><path class="cls-6" d="M249.74,115.32c2.58-2.62,3.48-6.19,5.26-9.27,3.86,3.09,6.09,7.84,10.66,10.26,1.97,1.04,3.66,2.62,5.48,3.96.27.91.53,1.81.8,2.72,1.82,2.87,4.38,5.37,4.58,9.07-.3,2.82-1.17,5.5-2.16,8.14-1.91,5.09-3.58,5.6-7.93,2.17-3.64-2.87-6.91-6.19-9.81-9.81-1.45-1.81-3.01-3.51-4.55-5.24-2.29-3.7-4.45-7.43-2.33-11.99Z"/><path class="cls-76" d="M320.72,173.53c-2.27,3.4-4.55,6.8-6.82,10.2-2.11,2.09-4.94,2.69-7.59,3.66-4.26-2.48-8.23-5.38-11.51-9.08-1.34-1.51-2.85-2.7-4.57-3.69-.37-.31-.6-.7-.69-1.17,0-.97.41-1.81.87-2.63.37-.6.81-1.14,1.31-1.64,1.4-1.37,2.9-2.43,5-1.61,7.43.74,14.84,1.69,22.28,2.12,3.86.22,2.9,1.78,1.74,3.84Z"/><path class="cls-41" d="M275.77,131.96c-1.28-2.99-2.55-5.97-3.83-8.96,3.75,2.96,7.51,5.92,11.26,8.88-.44,3.28,2.78,5.16,3.11,8.13-1.55,2.83-.4,6.13-1.56,9.02-.4,1.24-.59,2.52-.59,3.83.03,1.96-.51,3.86-.55,5.81,0,.44-.08.86-.2,1.28-.28.61-.73,1.08-1.28,1.45-1.29.21-1.97,3.16-3.83.86-1.19-10.08-2.19-20.16-2.53-30.3Z"/><path class="cls-23" d="M282.94,158.98c-1.61-1.95.64-3.85.08-5.78,1.72-3.36,4.53-2.09,7.14-1.69,1.85.67,1.84,2.55,2.57,3.95.29.85.58,1.7.88,2.55-.35,4.08,2.05,8.52-1.58,12.17-.34.38-.68.76-1.03,1.13-1.57-1.39-1.24-3.3-1.33-5.07-.1-2.14.09-4.29-.19-6.42-.21-1.65-.5-3.5-2.24-4.13-2.06-.74-2.02,1.68-3.05,2.54-.38.32-.77.61-1.25.75Z"/><path class="cls-81" d="M292.73,155.46c-2.62,0-1.32-2.72-2.55-3.69-1.83-1.26-3.78-2.28-5.9-2.98.33-2.85-1.34-6.07,1.55-8.46,1.97,1.99,1.89,5.18,4.13,7.01,2,2.34,3.57,4.83,2.78,8.12Z"/><path class="cls-114" d="M289.95,147.33c-3.91-.84-3.48-4.24-4.13-7.01-.17-1.76-1.94-2.47-2.56-3.91-.64-1.47-2.31-3.01-.06-4.54,4.02,4.38,5.06,10.06,6.75,15.46Z"/><path class="cls-35" d="M292.02,170.18c.53-4.06,1.06-8.11,1.59-12.17,1.03,3.19,2.06,6.38,3.1,9.57-2.29-.45-3.22,1.56-4.68,2.6Z"/><path class="cls-67" d="M290.02,174.03c.94.18,2.38.02,2.76.58,3.51,5.22,9.76,7.52,13.32,12.64,2.89,1.72,2.46,4.06,1.23,6.55-3.22,5.03-6.62,9.95-9.58,15.12-1.61,2.8-3.61,4.07-6.72,3.81-3.28-.9-6.64-.48-9.97-.56-3.37,1.8-6.7,1.96-9.99-.2-1.9-.12-3.79-.24-6.29-.4,2.32-3.62,4.32-6.75,6.32-9.88,1.21-1.78,2.99-.94,4.56-.98,4.39-.11,8.06-1.7,10.74-5.25.58-.77,1.29-1.77.84-2.74-.67-1.45-2-.6-3.07-.5-2.74.25-5.98,2.46-7.48-1.97.91-1.54,2.76-2.2,3.57-3.83,2.4-3.56,4.87-7.09,7.05-10.79.75-.8,1.11-2.27,2.72-1.6Z"/><path class="cls-44" d="M307.33,193.8c-.55-2.16.23-4.56-1.23-6.55,1.94-2.62,4.83-3.15,7.79-3.52.57,6.99-1.1,9.54-6.57,10.06Z"/><path class="cls-4" d="M271.06,211.98c3.33.07,6.66.13,9.99.2.03,12.56.05,25.12.08,37.69-3.09.34-6.18.68-9.27,1.02-.27-12.97-.54-25.94-.81-38.9Z"/><path class="cls-33" d="M140.08,219.02c-.37-.04-.73-.09-1.1-.13,1.83-12.23,3.55-24.48,5.51-36.69,1.93-12.06,3.34-24.17,4.57-36.31.67-6.68,1.55-13.34,2.84-20.04,2.05,9.72,3.17,19.51,2.98,29.46-2.01,1.84-1.32,4.36-1.49,6.58-.71,9.55-2.46,18.99-2.9,28.57-.5,2.44-.89,4.9-1.07,7.4-.19,5.7-2.19,11.24-1.46,17.02-1.03,1.95-.93,4.07-.99,6.18-1.14-.7-2.32-1.23-3.71-.86-1.06-.39-2.13-.77-3.19-1.16Z"/><path class="cls-72" d="M173.87,82.41c.31-.16.62-.32.93-.48,2.01,1.53,2.19,4.04,2.93,6.12,1.26,3.55,3.23,4.95,6.87,3.9,1.52.96,2.32,2.37,2.66,4.09-.09,11.44-.67,22.85-1.14,34.27-.5,12.08-1.1,24.16-1.32,36.25-.1,2.56-.25,5.13-.47,7.69-.13,1.5.04,3.35-2.18,3.69.02-7.91-.01-15.81.07-23.72.05-4.46-.12-8.87-1.27-13.2-3.48-10.65-3.37-21.86-5.07-32.78-.94-6.05-1.63-12.14-2.84-18.16-.53-2.62-.79-5.27.83-7.68Z"/><path class="cls-106" d="M173.87,82.41c1.54,11.81,3.14,23.61,4.59,35.43.95,7.71,1.67,15.45,2.49,23.18-4.26-5.71-4.96-12.86-7.74-19.19-2.32-5.27-3.71-10.94-5.54-16.42-.87-2.61-1.35-5.16.87-7.39,1.22-1.22,1.77-2.35.05-3.67-2.41-1.86-2.42.94-3.48,1.7-1.83-2.06-1.08-4.14-.06-6.23-.36-.64-.71-1.28-1.07-1.92,3.22-1.97,6.22-4.33,9.88-5.5Z"/><path class="cls-106" d="M168.54,197.48c1.67,5.26-.76,6.67-4.3,7.32-2.76.51-5.49,1.13-8.24,1.71-1.72.36-4.09,1.44-4.64-.93-.59-2.52-1.67-6.01,1.76-7.5,4.39-1.91,8.93-3.85,13.6-4.62,4.02-.66,1.37,3.4,1.83,4.03Z"/><path class="cls-69" d="M182.15,177.95c2.2-3.32-.48-7.48,1.85-10.78,3.23-.63,4.77,1.95,6.83,3.57.52.62.9,1.31,1.14,2.07.23,3.69,2.67,7.39-.03,11.08-3.3.36-6.6.71-9.91,1.07.04-2.34.07-4.68.11-7.02Z"/><path class="cls-108" d="M165.07,89.83c.02,2.08.04,4.15.06,6.23-1.06,6.4,1.15,12.41,2.19,18.56.69,4.06,1.29,8.14,1.93,12.2-.92,2.47-1.91,2.2-2.64-.04-.38-1.17.13-2.53-.39-3.74-1.29-6.46-2.85-12.89-3.78-19.41-.68-4.76-1.53-9.84,2.61-13.81Z"/><path class="cls-53" d="M149.9,190.99c.3-11.61,2.09-23.07,3.26-34.59.11-1.13.79-1.29,1.71-1.09-.97,11.92-2.17,23.82-4,35.65-.31.34-.64.35-.98.04Z"/><path class="cls-7" d="M166.23,123.05c1.02,1,.69,2.35.97,3.55.45,1.92,1.23,1.43,2.05.23,1.24.8,2.65,1.42,3.68,2.43,2.77,2.73,3.08,5.87.49,8.85-2.55,2.94-5.72,3.22-8.86.94-3.06-2.22-3.73-6.55-.94-9.11,2.24-2.06,2.69-4.24,2.61-6.89Z"/><path class="cls-20" d="M147.97,214.87c-1.81-5.77.21-11.33.87-16.97,1.01.32.43,1.52,1.12,2.02l-2,14.96Z"/><path class="cls-101" d="M149.97,199.91c-.9-.38-.88-1.27-1.12-2.02.62-2.26-.57-4.8,1.06-6.91.33-.02.65-.04.98-.04-.31,2.99-.61,5.97-.92,8.96Z"/><path class="cls-2" d="M191.95,183.9c-.28-3.91-.57-7.82-.85-11.73.05-1.04.37-2.08,1.15-2.67,5.18-3.96,4.71-9.39,4.05-14.91-2.17-18.23-3.47-36.56-5.56-54.8-.15-1.32-.11-2.65.1-3.96.33-1.64,1.14-2.97,2.56-3.88,3.86,1.02,6.35-.3,7.97-4.05.74-1.71,1.77-4.44,4.75-2.33,1.41,1.91,1.39,4.1.99,6.23-.89,4.79-.77,9.6-.55,14.42.24,2.79-1.77,5.33-.87,8.19.03.53-.01,1.05-.12,1.57-.69,5.54.38,11.14-.55,16.66.27,1.9-3.17,1.3-2.38,3.54.47.85,1.5,1.4,1.32,2.56-2.03,9.13,2.84,16.56,6.06,24.37,2.58,6.27,5.27,12.5,7.91,18.75-2.74.32-5.47.64-8.21.96-5.93.36-11.86.71-17.79,1.07Z"/><path class="cls-17" d="M257,205.93c-1.17.68-1.23,1.99-1.46,3.05-.72,3.18-2.11,4.31-5.08,2.22-3-2.1-3.79.23-4.13,2.38-1.22,7.66-2.39,15.32-3.29,23.02-.88,7.54-1.4,15.13-2.06,22.69-.09.99-.02,2.18-1.28,2.38-1.66.25-1.64-1.27-2.02-2.29-1.5-3.96-.94-8.2-1.42-12.27-1.35-11.47-2.56-22.96-4.21-34.39-.39-2.66.05-5.12,1.72-7.52,2.54-3.65,4.29-7.83,7.18-11.29,4.14-.61,7.16,1.59,10.06,4.06,2.31.65,4.61,1.31,6.92,1.96,1.8,2.32.57,4.18-.91,6Z"/><path class="cls-111" d="M280.96,187.06c-.78,1.64-1.51,3.34-3.83,3.08-2.32,1.16-4.29.41-6.11-1.14-.36-5.99.37-12.05-1.06-17.98-4.51-14.01-11.1-27.14-17.12-40.51-.54-1.2-.92-2.51.05-3.75,5.19,5.12,9.75,10.84,15.36,15.57,2.72,2.3,3.8,1.62,4.65-1.42.85-3.01,1.9-5.97,2.86-8.95,2.7,7.41,2.17,15.27,3.19,22.92.36,2.74-.6,5.64.94,8.25,2.44,3.12.88,7.21,2.55,10.52.08.52.04,1.04-.09,1.55-1.8,3.8-.69,7.94-1.39,11.86Z"/><path class="cls-106" d="M219.2,194.26c-1.48-.73-1.65-1.79-.94-3.22.78-1.59,1.89-3.08,1.68-5.01,3.85-6.64,7.5-12.66,6.56-21.52-1.54-14.58-1.39-29.47,1.85-44.03.14-.61.62-1.14,1.21-2.18,3.32,7.89,4.48,15.9,6.36,23.69,1.2,4.96,1.93,10.04,2.92,15.05,1.33,6.75-2.76,11.75-5.61,17.08-3.98,7.46-8.08,14.84-11.2,22.72-2.6.96-2.14-1.44-2.82-2.58Z"/><path class="cls-41" d="M252.89,126.75c2,6.89,5.43,13.14,8.72,19.45,4.09,7.83,7,16.05,8.35,24.81-6.19-6.24-10.23-14.07-15.55-20.96-2.41-3.12-5.77-6.03-2.32-10.64,1.19-1.59-.77-2.41-1.93-2.66-3.37-.74-4.25-2.91-4.52-6.05-.32-3.58-1.24-7.12-1.9-10.67,1.99-1.57,3.99-3.13,5.99-4.7-.14,4.14,1.14,7.89,3.15,11.43Z"/><path class="cls-29" d="M271.02,188.99c2.04.38,4.07.76,6.11,1.14,1.43,2.8,3.58,1.43,5.62,1.05,2.16-.4,5.48-2.04,6.17.46.63,2.3-.74,5.65-3.55,7.24-3.19,1.8-6.46,3.41-10.34,2.89-1.29-.18-2.63-.05-3.94-.07-2.69-.59-5.39-1.18-8.08-1.77-2.07-3.76-1.36-6.98,1.89-9.71,2.12,0,4.22-.15,6.12-1.22Z"/><path class="cls-19" d="M250.99,197.97c-3.35-1.35-6.7-2.71-10.06-4.06,3.03-6,6.06-12.01,9.1-18.01,1.71-1.12,3.42-2.34,4.96.23,1.72,2,1.86,3.97,1.34,6.72-1.02,5.38-4.43,9.79-5.34,15.12Z"/><path class="cls-73" d="M223.07,255.98c.74-10.1,1.48-20.2,2.21-30.3-.51-5.8-.33-11.6.03-17.41.1-1.7.34-3.32,1.96-4.32,1.2,1.45.69,3.18.69,4.79.04,16.06.07,32.13-.02,48.19,0,1.71,1.23,4.6-1.84,4.78-3.28.19-1.57-2.92-2.24-4.5-.19-.44-.53-.82-.8-1.22Z"/><path class="cls-63" d="M204.89,114.25c-1.96-2.68.03-4.87.9-7.2-.15-1.55.75-2.62,1.97-3.15,5.94-2.56,6.15-7.58,5.74-12.92-.1-1.3-.57-2.62.18-3.87,3.17-2.22,2.75,1.1,3.67,2.36.08,1.81.38,3.64.21,5.42-.46,4.63-2.65,9.19,2.69,13.06,2.43,1.76,2.13,5.72.54,8.79-2.19.56-2.39-1.15-2.88-2.53-.2-.95-.15-1.95-.45-2.89-.64-2.01-1.85-3.51-4.08-3.69-2.2-.18-3.66,1.04-4.64,2.94-.72,1.39-.64,3.29-2.51,3.96-.48.04-.93-.06-1.35-.29Z"/><path class="cls-97" d="M204.89,114.25l1.19-.06c.92.59,1.96,1.05,2.37,2.2.09.45.11.9.08,1.36-.13,4.37.89,8.58,1.93,12.77.23.94.44,2.18,1.55,2.36,1.55.25,1.73-1.29,2.19-2.26,1.14-2.43,1.58-5.07,2.28-7.64.52-1.89.68-3.99,2.61-5.19.87.07,1.39.41,1.04,1.39-.65,5.08-2.45,9.82-4.1,14.62-.45,1.31-3.09,2.61-1.04,4,1.76,1.19,3.76.19,4.89-1.82.99.48,1.13,1.41,1.22,2.35-5.64,3.24-11.43-.03-17.14.42-.66-.55-1.32-1.1-1.98-1.65.48-.64,1.15-.91,1.91-1.02,3.12.44,4.26-.45,3.05-3.78-2-5.49-2.77-11.22-2.2-17.08.02-.32.06-.64.13-.95Z"/><path class="cls-22" d="M227.27,203.95c-2.39,7.09-.23,14.59-1.99,21.74-.16-.26-.3-.53-.42-.82-.56-4.94-.59-9.87.02-14.81-1.14-1.17-2.29-2.32-3.41-3.5-3.42-3.6-6.63-7.26-2.27-12.3.95.86,1.89,1.72,2.83,2.58,1.75,2.37,3.5,4.74,5.25,7.11Z"/><path class="cls-8" d="M264.9,190.21c-1.39,3.09-1.93,6.34-1.89,9.71-.27.96-.81,1.93-.77,2.87.17,4.37-2.05,4.5-5.24,3.14.31-2,.61-4,.92-6,.92-2.83,1.95-5.63,2.72-8.5.8-2.99,2.28-2.79,4.27-1.23Z"/><path class="cls-62" d="M254.99,176.13c-1.6-1.2-3.34.6-4.96-.23.65-3.56,2.63-6.64,3.63-10.03.92-3.14,2.02-1.79,3.26-.57,3.27,3.23,2.59,6.95-1.92,10.83Z"/><path class="cls-78" d="M220.15,119.17c-.49-.37-.97-.74-1.46-1.12-.16,0-.42.08-.47,0-2.98-4.24-6.38-4.85-10.28-1.2,0-.29.02-.57.06-.86-1.3-3,.17-4.89,2.8-5.76,3.66-1.21,6.51.03,8.07,3.73.11,1.3.33,2.51,1.93,2.77-.22.81-.43,1.62-.65,2.42Z"/><path class="cls-48" d="M221.11,138.33c-1.35-.3-1.06-1.44-1.22-2.35.69-1.4,1.63-3.08,3.15-1.21,1.67,2.06-.89,2.56-1.93,3.56Z"/><path class="cls-4" d="M271.88,250.89c-.03,3.65-.06,7.31-.08,10.96-.88-3.66-1.1-7.32.08-10.96Z"/><path class="cls-27" d="M224.88,210.06c1.05,4.94.32,9.87-.02,14.81-1.41-4.94-1.45-9.88.02-14.81Z"/><path class="cls-37" d="M57.17,255.26c-.73-2.56.34-4.17,2.51-4.8,1.58-.46,2.87.57,3.64,2.01,1.15,2.15-.12,3.38-1.75,4.5-1.35.93-2.61,2-3.96,2.93-2.61,1.79-5.6,2.21-7.75-.14-3.46-3.75-6.84-7.7-9.1-12.35-1.85-3.82.47-7.54,4.62-7.88,1.18-.1,2.05.53,2.22,1.53.25,1.43-.71,2.23-2.09,2.02-5.49-.83-3.66,2.39-2.35,4.63,1.43,2.45,2.79,6.19,6.26,5.38,3.34-.77,4.93-4.28,6.03-7.47.77-2.24-.4-3.11-2.62-2.61-1.27.28-2.41.21-2.71-1.28-.1-.52.23-1.29.62-1.72.87-.97,1.77-.21,2.69.14,4.58,1.75,5.48,3.68,3.16,7.94-1.17,2.16-3.03,3.94-4.33,6.05-.71,1.14-2.4,2.29-1.36,3.84,1.07,1.58,2.93,1.52,4.53.82,1.53-.67,3.19-1.54,1.73-3.54Z"/><path class="cls-103" d="M103.01,135.73c9.33-4.99,18.65-9.97,27.98-14.96-.65,1.06-1.3,2.13-1.95,3.2-2.57,3.79-6.95,4.91-10.62,7.01-4.74,2.7-9.63,5.16-14.47,7.7-1.6.9-3.22,1.48-4.92.22.66-1.89,2.67-2.08,3.97-3.16Z"/><path class="cls-38" d="M99.04,138.89c1.77.29,3.44-.02,5.02-.87,1.04-.48,1.15.04.96.89-2.31,1.24-4.85,1.68-7.41,2.04.47-.69.95-1.37,1.42-2.06Z"/><path class="cls-75" d="M110.17,153.32c3.26-.98,7.42-3.67,9.56-2.53,2.95,1.56,3.02,6.57,4.52,10.01,1.42,3.25,1.91,6.7,1.8,10.15-.09,2.93,1.2,4.08,3.84,4.32.18.8.35,1.61.54,2.41,1.39,5.83,1.21,6.14-4.77,6.34-3.51.12-6.89.83-10.17,1.96-2.67.93-4.86.63-6.46-1.88,2.46-8.38.42-16.93.96-25.39.13-2.02-2.06-2.38-2.93-3.7,1.04-.56,2.07-1.13,3.11-1.69Z"/><path class="cls-59" d="M105.02,138.91c-.32-.3-.64-.59-.96-.89,8.09-5.1,17.12-8.54,24.98-14.05,1.27,1.54-1,1.91-1,3.03-7.67,3.97-15.35,7.94-23.02,11.91Z"/><path class="cls-32" d="M338.17,134.34c-1.9,3.96-3.69,4.47-6.06,1.44-1.32-1.69-2.86-3.2-4.23-4.86-1-1.21-1.36-2.67-1.02-4.2.51-2.3,3.07-4.11,4.21-3.15,3.59,3.02,7.73-2.31,10.9,1.25.95,1.07,1.47,2.19.52,3.82-1.8-3.06-3.65-5.39-6.91-1.46-1.22,1.47-1.77-.75-2.59-1.27-1.24-.79-2.4-1.23-3.63-.22-1.41,1.15-1.17,2.47-.41,3.98,2.21,4.38,5.48,6.32,9.21,4.66Z"/><path class="cls-52" d="M344.66,130.89c-3.74,3.8-7.91.05-11.72,1.17-.81.24-.73-2.25-.36-2.04,2.24,1.26,4.15-3.6,6.48-.06,1.13,1.71,3.73-1.08,5.6.93Z"/><path class="cls-68" d="M183.94,92.06c-2.75,2.99-4.69,3.26-6.16-1.26-.96-2.96-2.98-5.57-2.97-8.87.29-.56.59-1.11.88-1.67.43-.39.86-.78,1.29-1.16,3.39,3.02,6.78,6.03,10.17,9.05.13,2.29-1.24,3.35-3.21,3.92Z"/><path class="cls-106" d="M213.69,87.11c1.78,4.16,1.4,8.34.43,12.63-.48,2.11-.98,3.7-3.46,4.06-2.05.3-3.44,1.86-4.86,3.25-1.51-4.63-1-9.33-.24-13.98.46-2.81.86-5.5-.64-8.1-1.31-1.49-2.25-3.03-.69-4.92.37.04.74.08,1.12.13,2.78,2.31,5.57,4.62,8.35,6.93Z"/><path class="cls-3" d="M204.23,80.06c.23,1.64.46,3.28.69,4.92-2.29,1.39-3.12,3.96-4.11,6.09-1.94,4.18-3.91,4-6.63,1.01-1.98-.54-3.1-1.63-2.42-3.84,3.5-3.36,7-6.72,10.5-10.08.66.63,1.32,1.26,1.98,1.89Z"/><path class="cls-31" d="M191.75,88.24c.81,1.28,1.61,2.56,2.42,3.84-.79.98-1.57,1.96-2.36,2.93-.36.38-.79.67-1.28.88-1.32.33-2.57.26-3.64-.69.14-2.48.65-4.85,2.15-6.91.33-.12.67-.23,1-.35.57.1,1.14.2,1.71.3Z"/><path class="cls-107" d="M189.04,88.29c-.15,2.39.67,5.08-2.06,6.66-.28.4-.59.41-.92.07-.71-.99-1.41-1.98-2.12-2.96,1.07-1.31,2.14-2.61,3.21-3.92.63.05,1.26.1,1.9.14Z"/><path class="cls-118" d="M282.94,158.98c.16-.29.31-.58.48-.86,1.04-1.74-.07-5.51,3.5-4.79,2.81.56,3.91,3.4,4.03,6.14.18,3.94.04,7.89.04,11.85-.3.56-.61,1.11-.91,1.66-1.79.72-2.92-.44-3.59-1.68-1.87-3.49-4.51-6.79-3.59-11.19.01-.37.02-.75.03-1.12Z"/><path class="cls-43" d="M282.91,160.1c2.13,4.44,2.4,9.91,7.17,12.88-.02.35-.04.7-.06,1.05-.61.68-1.21,1.35-1.82,2.02-2.45,1.36-4.81,2.17-6.58-.99.04-.37.08-.73.12-1.1,3.14-.42,3.99-1.57,2.17-4.63-1.45-2.44-3.35-5.05-2.19-8.3.39-.31.79-.62,1.18-.93Z"/><path class="cls-104" d="M281.72,161.03c1.49,4.66,3.66,9.01,6.13,13.14-2.31,2.18-4.1-.74-6.11-.2-2.74-3.25-1.55-7.17-1.86-10.84.55-.75-.91-3.26,1.83-2.09Z"/><path class="cls-102" d="M284.28,148.79c3.18-1.4,4.87.14,5.9,2.98-2.25,1.17-5.11-.74-7.16,1.42,0-1.58-.48-3.31,1.26-4.4Z"/><path class="cls-9" d="M281.63,175.06c1.95,1.92,4.38.74,6.58.99-2.42,3.67-4.83,7.33-7.25,11-.78-4.05-2.23-8.14.67-11.99Z"/><path class="cls-94" d="M186.05,95.03c.31,0,.62-.02.92-.07,1.31.04,2.63.08,3.94.13-.62,5.94-.58,11.87.2,17.79.39,2.97.54,5.94.45,8.92-.39,14.24.54,28.44.94,42.66.07,2.41.84,5.44-2.54,6.7-1.99-1.33-3.97-2.66-5.96-3.98-1.47-1.75-.83-3.82-.76-5.73.89-22.14,1.86-44.27,2.8-66.41Z"/><path class="cls-36" d="M189.97,171.15c2.24-5.6,1.28-11.51.74-17.11-.54-5.65-.79-11.26-.62-16.87.36-12.13-.98-24.19-1.08-36.3-.02-2.17-.22-4.35,1.91-5.8.29-.06.59-.08.89-.07,2,19.97,3.75,39.98,6.11,59.91.87,7.35.06,13.31-6.82,17.25-.38-.34-.75-.68-1.13-1.02Z"/><path class="cls-100" d="M173.69,133.98c-.57,2.74-1.89,4.92-5.09,4.96-3.19.04-5.02-2.04-5.06-4.93-.04-2.89,1.79-5.07,4.92-5.1,3.11-.03,4.63,2.08,5.23,5.07Z"/><path class="cls-5" d="M204.76,115.2c.41,5.93,1.82,11.65,3.44,17.34.47,1.66,2.49,3.47,1.26,4.9-1.5,1.75-3.65-.32-5.54-.43-.67-.89-.82-1.81-.12-2.77.88-6.32-.82-12.77.96-19.04Z"/><path class="cls-91" d="M203.8,134.25c.04.92.08,1.84.12,2.77-.64.02-1.28.05-1.92.07-.83-1.19-3.14-2.05-1.34-3.9,1.33-1.37,2.27.14,3.14,1.06Z"/><path class="cls-88" d="M218.87,113.98c-6.19-4.82-9.73-4.16-10.87,2.03-1.34.13-1.97-.49-1.91-1.82.26-.58.69-1.14.77-1.75.5-3.79,2.59-6.52,6.39-6.2,4.2.36,6.28,3.31,5.63,7.74Z"/><path class="cls-117" d="M207.94,116.87c1.44-.38,1.07-1.86,1.68-2.75,1.99-2.88,5.36-2.79,7.05.28.67,1.22.38,2.96,2.02,3.65-.83,5.38-2.08,10.64-4.46,15.58-.48,1-.91,2.47-2.32,2.07-.73-.21-1.44-1.35-1.69-2.21-1.55-5.43-3.96-10.75-2.29-16.63Z"/><path class="cls-18" d="M167,132.07c2.32-1.56,3.18-1.5,4.34.15,1.08,1.53.61,2.77-.61,3.91-1.48,1.38-2.98,1.35-4.29-.16-1.31-1.5-2.01-3.03.63-3.97.21.2.35.37.42.49-.12-.08-.28-.22-.49-.42Z"/><path class="cls-89" d="M167,132.07c1.26.3,3.18-.47,3.16,1.89,0,.95-.81,1.64-1.56,1.52-2.12-.33-1.31-2.18-1.53-3.48,0,0-.07.07-.07.07Z"/></svg>